<svg width="6" height="10" viewBox="0 0 6 10" fill="none" xmlns="http://www.w3.org/2000/svg">
<g id="Arrow - Right 1">
<path id="Vector 58 (Stroke)" fill-rule="evenodd" clip-rule="evenodd" d="M0.920849 0.837602C1.14865 0.609797 1.518 0.609797 1.74581 0.837602L1.38462 1.19879C1.74581 0.837605 1.74577 0.837566 1.74581 0.837602L1.7841 0.875997L1.89086 0.983483C1.98269 1.07613 2.11371 1.20878 2.27087 1.36922C2.58496 1.68985 3.00453 2.12252 3.42478 2.56903C3.84362 3.01405 4.26903 3.47906 4.59203 3.86262C4.75247 4.05315 4.89601 4.23341 5.00229 4.3862C5.05486 4.46176 5.10663 4.54239 5.14759 4.62176C5.17564 4.67611 5.25 4.82241 5.25 5.00008C5.25 5.17775 5.17564 5.32405 5.14759 5.3784C5.10663 5.45777 5.05486 5.53841 5.00229 5.61396C4.89601 5.76675 4.75247 5.94702 4.59203 6.13755C4.26903 6.5211 3.84362 6.98611 3.42478 7.43113C3.00453 7.87764 2.58496 8.31031 2.27087 8.63094C2.11371 8.79138 1.98269 8.92403 1.89086 9.01668L1.7841 9.12417L1.74652 9.16185L1.74587 9.1625C1.74583 9.16253 1.74581 9.16256 1.33333 8.75008L0.920862 8.33759L0.957427 8.30092L1.06225 8.1954C1.15271 8.10412 1.28211 7.97311 1.43745 7.81453C1.74836 7.49714 2.16212 7.07044 2.57521 6.63153C2.98971 6.19114 3.39763 5.74468 3.69963 5.38605C3.82864 5.23286 3.93233 5.10273 4.00721 5.00008C3.93233 4.89743 3.82864 4.7673 3.69963 4.61411C3.39763 4.25548 2.9897 3.80903 2.57521 3.36863C2.16212 2.92972 1.74836 2.50302 1.43745 2.18563C1.28211 2.02706 1.15272 1.89604 1.06225 1.80477L0.957427 1.69924L0.921354 1.66307C0.693549 1.43526 0.693043 1.06541 0.920849 0.837602ZM4.11086 5.15684C4.11686 5.17186 4.119 5.1726 4.11086 5.15684C4.11076 5.15664 4.11097 5.15705 4.11086 5.15684ZM0.920849 9.16256C0.693043 8.93475 0.693056 8.56539 0.920862 8.33759L1.33333 8.75008L1.74587 9.1625C1.51806 9.3903 1.14865 9.39037 0.920849 9.16256Z" fill="#4F5DE4"/>
</g>
</svg>

