<svg width="18" height="12" viewBox="0 0 18 12" fill="none" xmlns="http://www.w3.org/2000/svg">
<g id="Arrow - Right 3">
<g id="Group 16">
<path id="Line 14 (Stroke)" fill-rule="evenodd" clip-rule="evenodd" d="M0.299805 6.00005C0.299805 5.61345 0.613205 5.30005 0.999805 5.30005L15.9998 5.30005C16.3864 5.30005 16.6998 5.61345 16.6998 6.00005C16.6998 6.38665 16.3864 6.70005 15.9998 6.70005L0.999805 6.70005C0.613205 6.70005 0.299805 6.38665 0.299805 6.00005Z" fill="white"/>
<path id="Vector 58 (Stroke)" fill-rule="evenodd" clip-rule="evenodd" d="M11.5196 0.490768C11.8008 0.225538 12.2439 0.238541 12.5091 0.51981L11.9998 1.00005L11.4905 1.48029C11.2253 1.19902 11.2383 0.755997 11.5196 0.490768ZM11.9998 11.0001L11.4906 10.5198L11.6831 10.3152C11.8058 10.1846 11.9812 9.99765 12.1918 9.77262C12.6129 9.32243 13.1741 8.72023 13.7349 8.11129C14.2965 7.50151 14.8547 6.88832 15.2712 6.41501C15.4102 6.25702 15.5311 6.11729 15.6299 6.00005C15.5311 5.88281 15.4102 5.74308 15.2712 5.58509C14.8547 5.11178 14.2965 4.49859 13.7349 3.88882C13.1741 3.27987 12.6129 2.67767 12.1918 2.22748C11.9812 2.00245 11.8058 1.81553 11.6831 1.68492L11.4905 1.48029L11.9998 1.00005L12.5091 0.51981L12.7033 0.726174C12.8266 0.857431 13.0028 1.04512 13.2141 1.27104C13.6367 1.72274 14.2005 2.32781 14.7647 2.94039C15.3281 3.55213 15.8949 4.1747 16.3222 4.66025C16.535 4.90203 16.7185 5.11592 16.8509 5.27986C16.916 5.36045 16.9768 5.43882 17.0243 5.50712C17.0471 5.54002 17.0762 5.58384 17.1023 5.63215C17.1153 5.65609 17.1343 5.69339 17.1516 5.73939C17.1646 5.7739 17.1998 5.87156 17.1998 6.00005C17.1998 6.12854 17.1646 6.2262 17.1516 6.26071C17.1343 6.30672 17.1153 6.34401 17.1023 6.36795C17.0762 6.41626 17.0471 6.46009 17.0243 6.49298C16.9768 6.56129 16.916 6.63965 16.8509 6.72024C16.7185 6.88418 16.535 7.09807 16.3222 7.33986C15.8949 7.8254 15.3281 8.44798 14.7647 9.05971C14.2005 9.67229 13.6367 10.2774 13.2141 10.7291C13.0028 10.955 12.8266 11.1427 12.7033 11.2739L12.5092 11.4802L11.9998 11.0001ZM11.9998 11.0001L11.4906 10.5198C11.2253 10.801 11.2383 11.2441 11.5196 11.5093C11.8008 11.7746 12.2439 11.7615 12.5092 11.4802L11.9998 11.0001Z" fill="white"/>
</g>
</g>
</svg>
