<svg width="18" height="12" viewBox="0 0 18 12" fill="none" xmlns="http://www.w3.org/2000/svg">
<g id="Arrow - Right 3">
<g id="Group 16">
<path id="Line 14 (Stroke)" fill-rule="evenodd" clip-rule="evenodd" d="M0.299805 5.99993C0.299805 5.61333 0.613205 5.29993 0.999805 5.29993L15.9998 5.29993C16.3864 5.29993 16.6998 5.61333 16.6998 5.99993C16.6998 6.38653 16.3864 6.69993 15.9998 6.69993L0.999805 6.69993C0.613205 6.69993 0.299805 6.38653 0.299805 5.99993Z" fill="white"/>
<path id="Vector 58 (Stroke)" fill-rule="evenodd" clip-rule="evenodd" d="M11.5196 0.490646C11.8008 0.225416 12.2439 0.238419 12.5091 0.519688L11.9998 0.999929L11.4905 1.48017C11.2253 1.1989 11.2383 0.755875 11.5196 0.490646ZM11.9998 10.9999L11.4906 10.5196L11.6831 10.3151C11.8058 10.1844 11.9812 9.99753 12.1918 9.7725C12.6129 9.32231 13.1741 8.72011 13.7349 8.11116C14.2965 7.50138 14.8547 6.8882 15.2712 6.41488C15.4102 6.2569 15.5311 6.11717 15.6299 5.99993C15.5311 5.88268 15.4102 5.74296 15.2712 5.58497C14.8547 5.11166 14.2965 4.49847 13.7349 3.88869C13.1741 3.27975 12.6129 2.67755 12.1918 2.22736C11.9812 2.00232 11.8058 1.81541 11.6831 1.6848L11.4905 1.48017L11.9998 0.999929L12.5091 0.519688L12.7033 0.726052C12.8266 0.857309 13.0028 1.045 13.2141 1.27091C13.6367 1.72262 14.2005 2.32769 14.7647 2.94027C15.3281 3.552 15.8949 4.17458 16.3222 4.66012C16.535 4.90191 16.7185 5.1158 16.8509 5.27974C16.916 5.36033 16.9768 5.43869 17.0243 5.50699C17.0471 5.53989 17.0762 5.58372 17.1023 5.63203C17.1153 5.65597 17.1343 5.69326 17.1516 5.73926C17.1646 5.77378 17.1998 5.87143 17.1998 5.99993C17.1998 6.12842 17.1646 6.22608 17.1516 6.26059C17.1343 6.30659 17.1153 6.34389 17.1023 6.36783C17.0762 6.41614 17.0471 6.45996 17.0243 6.49286C16.9768 6.56116 16.916 6.63953 16.8509 6.72011C16.7185 6.88405 16.535 7.09795 16.3222 7.33973C15.8949 7.82528 15.3281 8.44785 14.7647 9.05959C14.2005 9.67216 13.6367 10.2772 13.2141 10.7289C13.0028 10.9549 12.8266 11.1425 12.7033 11.2738L12.5092 11.4801L11.9998 10.9999ZM11.9998 10.9999L11.4906 10.5196C11.2253 10.8009 11.2383 11.244 11.5196 11.5092C11.8008 11.7744 12.2439 11.7614 12.5092 11.4801L11.9998 10.9999Z" fill="white"/>
</g>
</g>
</svg>
