<svg width="18" height="12" viewBox="0 0 18 12" fill="none" xmlns="http://www.w3.org/2000/svg">
<g id="Arrow - Right 3">
<g id="Group 16">
<path id="Line 14 (Stroke)" fill-rule="evenodd" clip-rule="evenodd" d="M0.299805 5.99996C0.299805 5.61336 0.613205 5.29996 0.999805 5.29996L15.9998 5.29996C16.3864 5.29996 16.6998 5.61336 16.6998 5.99996C16.6998 6.38656 16.3864 6.69996 15.9998 6.69996L0.999805 6.69996C0.613205 6.69996 0.299805 6.38656 0.299805 5.99996Z" fill="white"/>
<path id="Vector 58 (Stroke)" fill-rule="evenodd" clip-rule="evenodd" d="M11.5196 0.490676C11.8008 0.225447 12.2439 0.238449 12.5091 0.519719L11.9998 0.999959L11.4905 1.4802C11.2253 1.19893 11.2383 0.755906 11.5196 0.490676ZM11.9998 11L11.4906 10.5197L11.6831 10.3151C11.8058 10.1845 11.9812 9.99756 12.1918 9.77253C12.6129 9.32234 13.1741 8.72014 13.7349 8.11119C14.2965 7.50142 14.8547 6.88823 15.2712 6.41491C15.4102 6.25693 15.5311 6.1172 15.6299 5.99996C15.5311 5.88272 15.4102 5.74299 15.2712 5.585C14.8547 5.11169 14.2965 4.4985 13.7349 3.88872C13.1741 3.27978 12.6129 2.67758 12.1918 2.22739C11.9812 2.00235 11.8058 1.81544 11.6831 1.68483L11.4905 1.4802L11.9998 0.999959L12.5091 0.519719L12.7033 0.726083C12.8266 0.857339 13.0028 1.04503 13.2141 1.27094C13.6367 1.72265 14.2005 2.32772 14.7647 2.9403C15.3281 3.55203 15.8949 4.17461 16.3222 4.66015C16.535 4.90194 16.7185 5.11583 16.8509 5.27977C16.916 5.36036 16.9768 5.43872 17.0243 5.50703C17.0471 5.53992 17.0762 5.58375 17.1023 5.63206C17.1153 5.656 17.1343 5.69329 17.1516 5.7393C17.1646 5.77381 17.1998 5.87146 17.1998 5.99996C17.1998 6.12845 17.1646 6.22611 17.1516 6.26062C17.1343 6.30662 17.1153 6.34392 17.1023 6.36786C17.0762 6.41617 17.0471 6.45999 17.0243 6.49289C16.9768 6.56119 16.916 6.63956 16.8509 6.72015C16.7185 6.88408 16.535 7.09798 16.3222 7.33976C15.8949 7.82531 15.3281 8.44788 14.7647 9.05962C14.2005 9.6722 13.6367 10.2773 13.2141 10.729C13.0028 10.9549 12.8266 11.1426 12.7033 11.2738L12.5092 11.4801L11.9998 11ZM11.9998 11L11.4906 10.5197C11.2253 10.8009 11.2383 11.244 11.5196 11.5092C11.8008 11.7745 12.2439 11.7614 12.5092 11.4801L11.9998 11Z" fill="white"/>
</g>
</g>
</svg>
