<svg width="30" height="31" viewBox="0 0 30 31" fill="none" xmlns="http://www.w3.org/2000/svg">
<g id="Arrow - Left Square 3">
<path id="Subtract" fill-rule="evenodd" clip-rule="evenodd" d="M1.20577 5C5.75981e-07 7.08846 8.21101e-07 9.8923 1.31134e-06 15.5C1.80158e-06 21.1077 2.0467e-06 23.9115 1.20577 26C1.99569 27.3682 3.13183 28.5043 4.5 29.2942C6.58846 30.5 9.39231 30.5 15 30.5C20.6077 30.5 23.4115 30.5 25.5 29.2942C26.8682 28.5043 28.0043 27.3682 28.7942 26C30 23.9115 30 21.1077 30 15.5C30 9.8923 30 7.08845 28.7942 5C28.0043 3.63182 26.8682 2.49568 25.5 1.70577C23.4115 0.499998 20.6077 0.499998 15 0.499999C9.3923 0.499999 6.58846 0.499999 4.5 1.70577C3.13183 2.49569 1.99569 3.63183 1.20577 5ZM19.0218 10.2374C18.6006 9.83878 17.936 9.85707 17.5374 10.2782C17.1388 10.6994 17.1571 11.364 17.5783 11.7626L17.5784 11.7627L17.5788 11.7631L17.5809 11.7651L17.5895 11.7733L17.6238 11.8058L17.7552 11.931C17.8687 12.0395 18.0312 12.1953 18.2263 12.384C18.6169 12.7619 19.1362 13.2696 19.6543 13.7923C19.8736 14.0136 20.0907 14.2356 20.2965 14.45L7.5 14.45C6.9201 14.45 6.45 14.9201 6.45 15.5C6.45 16.0799 6.9201 16.55 7.5 16.55L20.2965 16.55C20.0908 16.7644 19.8736 16.9864 19.6543 17.2077C19.1362 17.7304 18.6169 18.2381 18.2263 18.616C18.0312 18.8047 17.8687 18.9605 17.7552 19.069L17.6238 19.1942L17.5895 19.2267L17.5809 19.2349L17.5788 19.2369L17.5784 19.2373L17.5783 19.2374C17.1571 19.636 17.1388 20.3006 17.5374 20.7218C17.936 21.1429 18.6006 21.1612 19.0218 20.7626L18.3 20L19.0219 20.7625L19.0221 20.7623L19.0227 20.7617L19.0252 20.7593L19.0346 20.7504L19.0706 20.7163L19.2058 20.5874C19.322 20.4764 19.4876 20.3176 19.6863 20.1254C20.0831 19.7416 20.6138 19.2228 21.1458 18.686C21.675 18.1521 22.2171 17.5888 22.6313 17.1191C22.8364 16.8866 23.0263 16.6587 23.1706 16.4591C23.2417 16.3607 23.3176 16.2474 23.3803 16.1293L23.3806 16.1287C23.4207 16.0533 23.55 15.8096 23.55 15.5C23.55 15.1904 23.4207 14.9467 23.3806 14.8713L23.3803 14.8707C23.3176 14.7526 23.2417 14.6393 23.1706 14.5409C23.0263 14.3413 22.8364 14.1134 22.6313 13.8809C22.2171 13.4112 21.675 12.8479 21.1458 12.314C20.6138 11.7772 20.0831 11.2584 19.6863 10.8746C19.4876 10.6824 19.322 10.5236 19.2058 10.4126L19.0706 10.2837L19.0346 10.2496L19.0252 10.2407L19.0227 10.2383L19.0221 10.2377L19.0219 10.2375L18.3 11L19.0218 10.2374Z" fill="#4F5DE4"/>
</g>
</svg>
