<svg width="30" height="31" viewBox="0 0 30 31" fill="none" xmlns="http://www.w3.org/2000/svg">
<g id="Arrow - Left Square 3">
<path id="Subtract" fill-rule="evenodd" clip-rule="evenodd" d="M28.7942 26C30 23.9115 30 21.1077 30 15.5C30 9.89231 30 7.08846 28.7942 5C28.0043 3.63183 26.8682 2.49569 25.5 1.70577C23.4115 0.500001 20.6077 0.500001 15 0.500001C9.3923 0.500002 6.58845 0.500002 4.5 1.70577C3.13183 2.49569 1.99568 3.63183 1.20577 5C-2.0467e-06 7.08846 -1.80158e-06 9.89231 -1.31134e-06 15.5C-8.21101e-07 21.1077 -5.75981e-07 23.9115 1.20577 26C1.99569 27.3682 3.13183 28.5043 4.5 29.2942C6.58846 30.5 9.39231 30.5 15 30.5C20.6077 30.5 23.4115 30.5 25.5 29.2942C26.8682 28.5043 28.0043 27.3682 28.7942 26ZM10.9782 20.7626C11.3994 21.1612 12.064 21.1429 12.4626 20.7218C12.8612 20.3006 12.8429 19.636 12.4217 19.2374L12.4216 19.2373L12.4212 19.2369L12.4191 19.2349L12.4105 19.2267L12.3762 19.1942L12.2448 19.069C12.1313 18.9605 11.9688 18.8047 11.7737 18.616C11.3831 18.2381 10.8638 17.7304 10.3457 17.2077C10.1264 16.9864 9.90925 16.7644 9.70353 16.55L22.5 16.55C23.0799 16.55 23.55 16.0799 23.55 15.5C23.55 14.9201 23.0799 14.45 22.5 14.45L9.70353 14.45C9.90925 14.2356 10.1264 14.0136 10.3457 13.7923C10.8638 13.2696 11.3831 12.7619 11.7737 12.384C11.9688 12.1953 12.1313 12.0395 12.2448 11.931L12.3762 11.8058L12.4105 11.7733L12.4191 11.7651L12.4212 11.7631L12.4216 11.7627L12.4217 11.7626C12.8429 11.364 12.8612 10.6994 12.4626 10.2782C12.064 9.85707 11.3994 9.83878 10.9782 10.2374L11.7 11L10.9781 10.2375L10.9779 10.2377L10.9773 10.2383L10.9748 10.2407L10.9654 10.2496L10.9294 10.2837L10.7942 10.4126C10.678 10.5236 10.5124 10.6824 10.3137 10.8746C9.91688 11.2584 9.38621 11.7772 8.85423 12.314C8.32498 12.8479 7.78293 13.4112 7.36872 13.8809C7.16365 14.1134 6.97365 14.3413 6.82938 14.5409C6.75833 14.6393 6.68235 14.7526 6.61971 14.8707L6.61937 14.8713C6.57933 14.9467 6.44998 15.1904 6.44998 15.5C6.44998 15.8096 6.57933 16.0533 6.61937 16.1287L6.61971 16.1293C6.68235 16.2474 6.75833 16.3607 6.82938 16.4591C6.97365 16.6587 7.16365 16.8866 7.36872 17.1191C7.78293 17.5888 8.32498 18.1521 8.85423 18.686C9.38621 19.2228 9.91688 19.7416 10.3137 20.1254C10.5124 20.3176 10.678 20.4764 10.7942 20.5874L10.9294 20.7163L10.9654 20.7504L10.9748 20.7593L10.9773 20.7617L10.9779 20.7623L10.9781 20.7625L11.7 20L10.9782 20.7626Z" fill="#4F5DE4"/>
</g>
</svg>
