<svg width="20" height="20" viewBox="0 0 20 20" fill="none" xmlns="http://www.w3.org/2000/svg">
<g id="Call">
<path id="Vector 19 (Stroke)" fill-rule="evenodd" clip-rule="evenodd" d="M3.16087 0.615666C3.54571 0.429868 3.95811 0.300049 4.31118 0.300049C4.54385 0.300049 4.76522 0.373467 4.93775 0.447481C5.12231 0.526663 5.31363 0.634259 5.50218 0.756923C5.87998 1.0027 6.29178 1.33848 6.68168 1.72002C7.43479 2.45698 8.23394 3.49023 8.44633 4.50334C8.53653 4.93361 8.44294 5.37083 8.20921 5.7243C8.06581 5.94115 7.88238 6.17098 7.70949 6.38489C7.68462 6.41566 7.65984 6.44626 7.63517 6.47671C7.48074 6.66738 7.33073 6.8526 7.1913 7.04052C7.02965 7.25838 6.90033 7.45624 6.81296 7.63382C6.72367 7.81532 6.69958 7.93313 6.69958 8.00005C6.69959 8.31432 6.89125 8.93568 7.31684 9.70986C7.7264 10.4549 8.29769 11.2418 8.93419 11.8704C9.60515 12.5331 10.1991 13.0254 10.726 13.3488C11.2176 13.6505 11.6113 13.7809 11.9276 13.7981C11.9424 13.7857 11.9625 13.7678 11.9883 13.7424C12.0474 13.6842 12.1123 13.6117 12.2014 13.5112L12.2133 13.4977C12.295 13.4056 12.3927 13.2953 12.5007 13.1839C12.9761 12.6934 13.6912 12.1422 14.8685 12.1422C15.7887 12.1422 16.7286 12.628 17.4709 13.27C18.2246 13.9219 18.8746 14.8191 19.1698 15.7979C19.4206 16.6296 19.0124 17.3378 18.5302 17.827C18.0446 18.3196 17.3649 18.7254 16.7046 19.0387C15.5932 19.5661 14.3581 19.751 13.1559 19.6354C11.0175 19.4296 8.03852 18.5801 4.51817 15.2451C4.50662 15.2341 4.49544 15.2228 4.48466 15.2111C2.48636 13.041 1.39984 11.205 0.836001 9.52586C0.271217 7.84393 0.249763 6.37239 0.300051 4.98848C0.357259 3.41411 1.08796 2.24419 1.91107 1.47812C2.32061 1.09696 2.75842 0.809962 3.16087 0.615666ZM2.86487 2.50294C2.25972 3.06616 1.74041 3.90316 1.69913 5.03932C1.65092 6.36594 1.67871 7.63747 2.16317 9.0802C2.6472 10.5216 3.60585 12.1864 5.49834 14.2451C8.77944 17.3471 11.4587 18.0656 13.29 18.2418C14.2631 18.3354 15.2415 18.1834 16.1044 17.7739C16.7031 17.4898 17.2143 17.1677 17.5332 16.8442C17.8555 16.5172 17.8653 16.3211 17.8294 16.2022C17.6246 15.5231 17.1476 14.8414 16.555 14.3288C15.9509 13.8063 15.3253 13.5422 14.8685 13.5422C14.2097 13.5422 13.834 13.8199 13.5059 14.1583C13.4202 14.2467 13.341 14.3361 13.2551 14.4331L13.2492 14.4397C13.1662 14.5334 13.0694 14.6426 12.971 14.7396C12.793 14.915 12.4673 15.2 11.9996 15.2C11.318 15.2 10.6453 14.942 9.99365 14.542C9.33936 14.1404 8.65949 13.5669 7.9504 12.8665C7.20683 12.1321 6.55677 11.2334 6.08999 10.3843C5.63924 9.56433 5.29959 8.68301 5.29959 8.00005C5.29958 7.6364 5.41762 7.29861 5.55677 7.01578C5.69784 6.72904 5.8833 6.45386 6.06698 6.2063C6.22563 5.99249 6.39646 5.78165 6.5497 5.59251C6.57383 5.56274 6.59752 5.53349 6.62066 5.50486C6.79842 5.28493 6.94042 5.10485 7.04143 4.95209C7.07772 4.89721 7.08636 4.83946 7.07611 4.79059C6.9513 4.19522 6.40189 3.40502 5.70252 2.72064C5.36617 2.3915 5.02573 2.11715 4.73875 1.93045C4.59491 1.83688 4.4757 1.77266 4.38578 1.73408C4.33582 1.71265 4.30624 1.70405 4.29429 1.70085C4.22426 1.70664 4.04052 1.7456 3.76954 1.87642C3.49037 2.01121 3.16947 2.21945 2.86487 2.50294Z" fill="#F57005"/>
</g>
</svg>
