<svg width="19" height="18" viewBox="0 0 19 18" fill="none" xmlns="http://www.w3.org/2000/svg">
<g id="chat">
<path id="Subtract" fill-rule="evenodd" clip-rule="evenodd" d="M8.33904 0H12.3806C16.0364 0 19 2.96359 19 6.61936L19 10.45C19 14.1227 16.0227 17.1 12.35 17.1H9.02499L5.7373 17.0441C4.3877 17.0212 3.04148 17.1865 1.73752 17.5352L1.27189 17.6598C0.726536 17.8057 0.237826 17.2865 0.416344 16.751C0.802558 15.5923 0.986244 14.3758 0.959341 13.1548L0.83484 7.5042C0.834841 3.35974 4.19458 0 8.33904 0ZM6 10C6.55228 10 7 9.55229 7 9C7 8.44771 6.55228 8 6 8C5.44772 8 5 8.44771 5 9C5 9.55229 5.44772 10 6 10ZM11 9C11 9.55229 10.5523 10 10 10C9.44771 10 9 9.55229 9 9C9 8.44771 9.44771 8 10 8C10.5523 8 11 8.44771 11 9ZM14 10C14.5523 10 15 9.55229 15 9C15 8.44771 14.5523 8 14 8C13.4477 8 13 8.44771 13 9C13 9.55229 13.4477 10 14 10Z" fill="#6A7A9B"/>
</g>
</svg>
