<svg width="20" height="16" viewBox="0 0 20 16" fill="none" xmlns="http://www.w3.org/2000/svg">
<g id="Message">
<path id="Subtract" fill-rule="evenodd" clip-rule="evenodd" d="M0.544967 2.73005C0 3.79961 0 5.19974 0 8C0 10.8003 0 12.2004 0.544967 13.27C1.02433 14.2108 1.78924 14.9757 2.73005 15.455C3.79961 16 5.19974 16 8 16H12C14.8003 16 16.2004 16 17.27 15.455C18.2108 14.9757 18.9757 14.2108 19.455 13.27C20 12.2004 20 10.8003 20 8C20 5.19974 20 3.79961 19.455 2.73005C18.9757 1.78924 18.2108 1.02433 17.27 0.544967C16.2004 0 14.8003 0 12 0H8C5.19974 0 3.79961 0 2.73005 0.544967C1.78924 1.02433 1.02433 1.78924 0.544967 2.73005ZM6.3254 5.62038C6.11574 5.44067 5.80009 5.46495 5.62038 5.67461C5.44067 5.88428 5.46495 6.19993 5.67461 6.37964L5.71493 6.41409L5.82789 6.51017C5.92528 6.5928 6.0648 6.71071 6.23373 6.85214C6.57135 7.1348 7.02753 7.51234 7.50016 7.89044C7.97139 8.26742 8.46497 8.64979 8.87573 8.93974C9.08014 9.08403 9.27277 9.21166 9.43651 9.30522C9.51797 9.35177 9.60142 9.39518 9.68151 9.42833C9.74823 9.45593 9.86649 9.50001 10 9.50001C10.1335 9.50001 10.2518 9.45593 10.3185 9.42833C10.3986 9.39518 10.4821 9.35177 10.5635 9.30522C10.7273 9.21166 10.9199 9.08403 11.1243 8.93974C11.5351 8.64979 12.0286 8.26742 12.4999 7.89044C12.9725 7.51234 13.4287 7.1348 13.7663 6.85214C13.9352 6.71071 14.0747 6.5928 14.1721 6.51017L14.2851 6.41409L14.3247 6.38027C14.5343 6.20056 14.5593 5.88428 14.3796 5.67461C14.1999 5.46495 13.8843 5.44067 13.6746 5.62038L13.6361 5.65331L13.5252 5.74766C13.4292 5.82909 13.2914 5.94556 13.1244 6.08538C12.7901 6.36522 12.34 6.73768 11.8752 7.10957C11.4089 7.48259 10.9337 7.85023 10.5476 8.12278C10.3536 8.25974 10.1907 8.36649 10.0674 8.43698C10.0417 8.45164 10.0193 8.46384 10 8.47387C9.98071 8.46384 9.95831 8.45164 9.93265 8.43698C9.80928 8.36649 9.64644 8.25974 9.45241 8.12278C9.0663 7.85023 8.59113 7.48259 8.12486 7.10957C7.65999 6.73768 7.20992 6.36522 6.87566 6.08538C6.70866 5.94556 6.57083 5.82909 6.47486 5.74766L6.36394 5.65331L6.3254 5.62038Z" fill="#6A7A9B"/>
</g>
</svg>
