<svg width="88" height="88" viewBox="0 0 88 88" fill="none" xmlns="http://www.w3.org/2000/svg">
<g id="Asset190 1" clip-path="url(#clip0_93_1214)">
<g id="Layer 2">
<g id="Layer 1">
<path id="Vector" opacity="0.15" d="M56.3262 11.9751L5.42928 58.8374C-1.81546 65.5079 -1.81546 76.3228 5.42928 82.9932C12.674 89.6637 24.4201 89.6637 31.6648 82.9932L82.5617 36.1309C89.8064 29.4605 89.8064 18.6456 82.5617 11.9751C75.317 5.30468 63.5709 5.30468 56.3262 11.9751Z" fill="#2F55D4"/>
<path id="Vector_2" d="M63.0086 12.2981L62.9418 13.6236C62.8779 14.9317 63.3166 16.2186 64.181 17.2584L65.0566 18.3106C65.9194 19.3498 66.3573 20.6355 66.2936 21.9422C66.2298 23.249 65.6684 24.4934 64.7079 25.4571L63.7358 26.4342C62.7735 27.3986 62.2112 28.6445 62.1478 29.9528L62.081 31.2783C62.0161 32.5855 61.4533 33.83 60.4912 34.7933C59.5291 35.7566 58.2293 36.3771 56.8198 36.546L55.3951 36.7168C53.9845 36.8861 52.6839 37.5078 51.7219 38.4727L50.7499 39.4224C49.7875 40.386 48.4872 41.0067 47.0772 41.1754C45.6672 41.3441 44.2378 41.05 43.0399 40.3447L41.8304 39.6615C40.6331 38.9554 39.2038 38.6602 37.7936 38.8279L36.3615 38.9441C34.9527 39.1117 33.5249 38.8175 32.3282 38.1129C31.1315 37.4083 30.2423 36.3384 29.8166 35.0907L29.3862 33.8267C28.9604 32.5768 28.0697 31.5051 26.8706 30.8L25.6611 30.1168C24.4633 29.4111 23.5739 28.3393 23.1492 27.0898C22.7244 25.8403 22.7914 24.493 23.3384 23.2845L23.8876 22.0615C24.4334 20.8525 24.4991 19.5051 24.0731 18.2559L23.6427 16.9919C23.2165 15.745 23.2803 14.3999 23.823 13.1919C24.3657 11.984 25.3526 10.9904 26.6109 10.3851L27.8872 9.77701C29.1481 9.17473 30.1385 8.18304 30.6848 6.97577L31.2339 5.75279C31.7805 4.54469 32.7717 3.55245 34.0337 2.95024C35.2957 2.34803 36.7477 2.17432 38.135 2.45962L39.5671 2.73291C40.9552 3.01833 42.4082 2.84415 43.6707 2.24099L44.947 1.63291C46.2109 1.03316 47.6639 0.862624 49.0509 1.15125C50.4378 1.43989 51.6699 2.16923 52.5308 3.21117L53.4287 4.26335C54.2933 5.30287 55.5282 6.0286 56.9163 6.31304L58.3188 6.6C59.7025 6.89195 60.9307 7.62279 61.7881 8.66455C62.6455 9.70631 63.0775 10.9926 63.0086 12.2981Z" fill="white"/>
<path id="Vector_3" d="M74.273 35.3845C73.3498 35.3845 72.4474 35.1324 71.6799 34.6602C70.9123 34.188 70.314 33.5168 69.9608 32.7315C69.6075 31.9463 69.5151 31.0822 69.6952 30.2485C69.8753 29.4149 70.3198 28.6492 70.9726 28.0481C71.6253 27.4471 72.457 27.0378 73.3624 26.872C74.2678 26.7062 75.2063 26.7913 76.0592 27.1166C76.912 27.4418 77.641 27.9927 78.1539 28.6994C78.6667 29.4061 78.9405 30.237 78.9405 31.0869C78.9385 32.2262 78.4461 33.3182 77.5712 34.1238C76.6963 34.9293 75.5103 35.3827 74.273 35.3845ZM74.273 28.8323C73.7901 28.8323 73.3181 28.9641 72.9166 29.2111C72.5152 29.4581 72.2022 29.8092 72.0175 30.2199C71.8327 30.6306 71.7843 31.0826 71.8785 31.5186C71.9727 31.9547 72.2053 32.3552 72.5467 32.6696C72.8881 32.9839 73.3231 33.198 73.7967 33.2847C74.2703 33.3715 74.7611 33.327 75.2072 33.1568C75.6533 32.9867 76.0346 32.6986 76.3029 32.3289C76.5712 31.9593 76.7143 31.5247 76.7143 31.0801C76.7104 30.4857 76.4517 29.9167 75.9945 29.4971C75.5373 29.0774 74.9186 28.8409 74.273 28.8391V28.8323Z" fill="#2F55D4"/>
<path id="Vector_4" d="M43.9971 41.0553L29.6013 70.4137L26.6405 62.7273L18.4111 65.7609L31.4045 38.3428" fill="#D5DFEB"/>
<path id="Vector_5" d="M44.3975 41.0553L58.7859 70.4137L61.7541 62.7273L69.9834 65.7609L55.5876 36.4025" fill="#D5DFEB"/>
<path id="Vector_6" d="M55.8922 15.3522L55.8476 16.2199C55.8052 17.0753 56.0916 17.9172 56.6565 18.5975L57.2279 19.2807C57.7917 19.9605 58.0777 20.8014 58.0356 21.6559C57.9936 22.5104 57.6262 23.324 56.9978 23.954L56.3968 24.5963C55.7686 25.2255 55.4009 26.0382 55.3579 26.8919L55.3134 27.7596C55.264 28.6088 54.8934 29.4153 54.2659 30.0393C53.6384 30.6632 52.7934 31.0653 51.8777 31.1758L50.9427 31.2851C50.0222 31.3968 49.1737 31.8031 48.5458 32.4329L47.9077 33.0683C47.2782 33.6974 46.4284 34.1024 45.5071 34.2123C44.5858 34.3223 43.6519 34.1301 42.8691 33.6696L42.0751 33.205C41.2909 32.7447 40.3555 32.5536 39.4334 32.6652L38.4688 32.795C37.5471 32.9049 36.6129 32.7125 35.8299 32.2515C35.047 31.7905 34.4654 31.0903 34.1871 30.2739L33.9051 29.4472C33.6269 28.6323 33.0465 27.9334 32.2652 27.4727L31.4712 27.0081C30.6957 26.542 30.1223 25.8402 29.8511 25.0249C29.5799 24.2096 29.628 23.3326 29.9871 22.5466L30.3507 21.7472C30.6936 20.9499 30.7198 20.0668 30.4249 19.2534L30.1578 18.4472C29.8807 17.631 29.9244 16.7511 30.2812 15.9616C30.638 15.1721 31.2852 14.5234 32.1094 14.1292L32.9479 13.7329C33.7736 13.3398 34.4225 12.6915 34.7808 11.9019L35.1444 11.1025C35.5021 10.313 36.1502 9.6646 36.9752 9.27108C37.8002 8.87755 38.7492 8.76399 39.656 8.9503L40.5762 9.14161C41.4824 9.32736 42.4307 9.21368 43.255 8.82049L44.0935 8.42422C44.9181 8.03117 45.8666 7.91778 46.7729 8.10391C47.6792 8.29003 48.4854 8.7638 49.0504 9.44223L49.6218 10.1255C50.1819 10.8145 50.989 11.2986 51.8999 11.4919L52.8201 11.6832C53.715 11.8715 54.511 12.3405 55.0715 13.0099C55.632 13.6793 55.9221 14.5074 55.8922 15.3522Z" fill="#2F55D4"/>
<path id="Vector_7" d="M29.4826 73.1602L25.9801 64.0733L16.3037 67.6466L30.3804 37.9329L32.4211 38.7528L20.5186 63.882L27.3009 61.3745L29.7274 67.6739L42.9805 40.6385L45.0137 41.4789L29.4826 73.1602Z" fill="#3E6177"/>
<path id="Vector_8" d="M58.912 73.1602L43.3809 41.4789L45.4067 40.6385L58.6671 67.6739L61.0937 61.3745L67.8315 63.8615L54.571 36.8261L56.5968 35.9857L72.128 67.6602L62.4145 64.0733L58.912 73.1602Z" fill="#3E6177"/>
<path id="Vector_9" d="M45.5552 42.2509C44.1875 42.2523 42.8481 41.8918 41.6965 41.2124L40.487 40.5292C39.5097 39.9528 38.3435 39.711 37.1922 39.846L35.7675 40.0168C34.0983 40.2177 32.4056 39.8702 30.9873 39.0354C29.5689 38.2006 28.5157 36.932 28.0131 35.4528L27.5827 34.1615C27.2351 33.1437 26.5102 32.2707 25.5346 31.695L24.325 31.0118C22.9059 30.1788 21.8516 28.9113 21.348 27.4327C20.8443 25.954 20.9237 24.3592 21.572 22.9292L22.1212 21.7062C22.5706 20.7093 22.6206 19.5978 22.2621 18.5702L21.8318 17.3062C21.3266 15.8265 21.4055 14.23 22.0545 12.7987C22.7035 11.3673 23.8809 10.193 25.3788 9.48322L26.6551 8.88198C27.6865 8.38809 28.4957 7.57524 28.9406 6.58633L29.4897 5.36335C30.1339 3.93245 31.3057 2.75667 32.7988 2.04305C34.2919 1.32942 36.0107 1.1237 37.6523 1.46211L39.0548 1.74906C40.1869 1.98901 41.3746 1.85352 42.4089 1.36645L43.6852 0.758379C45.1789 0.0361565 46.9019 -0.17619 48.5493 0.15893C50.1967 0.49405 51.6621 1.35502 52.6863 2.58944L53.5619 3.64161C54.2644 4.48835 55.2677 5.08085 56.3966 5.31552L57.799 5.60248C59.442 5.93873 60.9034 6.79816 61.9256 8.0293C62.9478 9.26045 63.4652 10.7843 63.3867 12.3323L63.3125 13.6646C63.2599 14.7315 63.6172 15.7813 64.3217 16.6298L65.1973 17.682C66.2223 18.9119 66.7427 20.4356 66.6667 21.9844C66.5907 23.5331 65.9231 25.0074 64.7818 26.1472L63.8171 27.1174C63.0318 27.9039 62.5721 28.9197 62.5185 29.987L62.4517 31.3124C62.3781 32.8608 61.7132 34.3355 60.5743 35.4767C59.4353 36.6179 57.8954 37.3522 56.2259 37.5503L54.8011 37.7211C53.6612 37.864 52.6113 38.3691 51.8329 39.1491L50.8608 40.1261C50.1862 40.8013 49.3657 41.3391 48.452 41.705C47.5383 42.071 46.5516 42.2569 45.5552 42.2509ZM37.8452 37.7348C39.2127 37.735 40.5516 38.0953 41.7039 38.7733L42.9135 39.4565C43.8898 40.032 45.0551 40.2721 46.2047 40.1347C47.3543 39.9972 48.4144 39.491 49.1987 38.705L50.1707 37.7279C51.3149 36.597 52.8538 35.8716 54.5192 35.6783L55.9291 35.5279C57.0789 35.3907 58.1393 34.8846 58.9238 34.0985C59.7083 33.3125 60.1666 32.2969 60.2181 31.2304L60.2849 29.905C60.3633 28.3573 61.0305 26.8844 62.1697 25.7441L63.1418 24.7671C63.9286 23.9816 64.3891 22.9657 64.442 21.8983C64.495 20.8309 64.137 19.7805 63.4312 18.9323L62.5556 17.8665C61.526 16.6373 61.0004 15.113 61.0715 13.5621L61.1383 12.2366C61.1922 11.1697 60.8355 10.1194 60.131 9.27076C59.4265 8.42214 58.4194 7.82961 57.287 7.59751L55.8845 7.31055C54.2428 6.97286 52.7823 6.11428 51.7587 4.88509L50.9054 3.83291C50.2013 2.98431 49.1946 2.39161 48.0625 2.15916C46.9305 1.9267 45.7457 2.06939 44.7167 2.56211L43.4403 3.17018C41.9465 3.88138 40.2289 4.08692 38.5873 3.75093L37.1774 3.46397C36.0455 3.22936 34.86 3.37004 33.8297 3.86122C32.7994 4.35241 31.9904 5.16259 31.5452 6.14906L30.9961 7.37204C30.3484 8.80325 29.1741 9.9788 27.6791 10.6925L26.4028 11.3006C25.3729 11.7917 24.5642 12.6016 24.119 13.5876C23.6738 14.5737 23.6206 15.6727 23.9689 16.6913L24.3993 17.9553C24.9005 19.4337 24.8217 21.0274 24.1766 22.4578L23.6275 23.6807C23.182 24.6663 23.1282 25.765 23.4757 26.7835C23.8231 27.802 24.5496 28.6751 25.5272 29.2491L26.7367 29.9323C28.151 30.7687 29.2015 32.0358 29.7049 33.5124L30.1353 34.8447C30.4818 35.8637 31.2075 36.7376 32.1848 37.3124C33.1621 37.8873 34.3282 38.1264 35.4781 37.9876L36.9028 37.8168C37.2147 37.7702 37.5295 37.7429 37.8452 37.7348Z" fill="#3E6177"/>
<path id="Vector_10" d="M44.9616 35.2956C43.9933 35.2956 43.0455 35.0395 42.2308 34.5578L41.4368 34.0932C40.8747 33.7642 40.2053 33.6265 39.5446 33.7037L38.5873 33.813C37.4064 33.9545 36.2091 33.708 35.2061 33.1169C34.2031 32.5258 33.4586 31.628 33.1036 30.5814L32.8216 29.7547C32.6218 29.168 32.2041 28.6649 31.6417 28.3335L30.8477 27.8689C29.8515 27.2733 29.1145 26.3741 28.7659 25.3286C28.4172 24.2831 28.4791 23.158 28.9406 22.1503L29.3043 21.3509C29.56 20.7845 29.5915 20.1533 29.3933 19.5677L29.1113 18.741C28.7545 17.6951 28.8096 16.5668 29.2669 15.5546C29.7243 14.5423 30.5547 13.711 31.612 13.2068L32.4506 12.8106C33.0427 12.5263 33.5075 12.0596 33.764 11.4919L34.135 10.6857C34.5957 9.67705 35.4278 8.85016 36.485 8.35035C37.5422 7.85053 38.7569 7.70976 39.9156 7.95279L40.8357 8.1441C41.4885 8.27808 42.1717 8.19583 42.7651 7.9118L43.5665 7.51552C44.6229 7.01054 45.8388 6.86455 47.0005 7.10322C48.1622 7.34189 49.1954 7.94994 49.9185 8.82049L50.4899 9.50372C50.8968 9.99202 51.4773 10.333 52.1298 10.4671L53.0499 10.6584C54.2163 10.8974 55.2532 11.5086 55.9771 12.3839C56.701 13.2593 57.0651 14.3422 57.0051 15.441L56.9606 16.3087C56.9301 16.9229 57.135 17.5274 57.5394 18.0168L58.1107 18.7C58.8354 19.5711 59.203 20.6497 59.1487 21.7458C59.0944 22.8419 58.6217 23.8852 57.8139 24.6919L57.1757 25.3273C56.7251 25.7811 56.4624 26.3665 56.4337 26.9807L56.3966 27.8006C56.3435 28.8963 55.8724 29.9396 55.0661 30.7469C54.2599 31.5542 53.1702 32.0739 51.9888 32.2143L51.0538 32.3236C50.3923 32.4045 49.7829 32.6972 49.3323 33.1503L48.6941 33.7857C48.2197 34.2619 47.6428 34.6421 47.0003 34.902C46.3577 35.162 45.6634 35.296 44.9616 35.2956ZM39.9082 31.6335C40.8762 31.6347 41.8237 31.8907 42.6389 32.3714L43.4329 32.836C43.9948 33.1687 44.6663 33.3079 45.3288 33.2291C45.9914 33.1504 46.6024 32.8587 47.0541 32.4056L47.6923 31.7702C48.4996 30.9628 49.5898 30.4428 50.7718 30.3012L51.7068 30.1919C52.3702 30.1117 52.9814 29.8181 53.4322 29.363C53.8831 28.9078 54.1446 28.3205 54.1704 27.705L54.215 26.8373C54.2736 25.7497 54.7435 24.7152 55.5432 23.913L56.1814 23.2776C56.633 22.8255 56.8969 22.2413 56.9268 21.6277C56.9567 21.0141 56.7505 20.4104 56.3446 19.923L55.7733 19.2397C55.0485 18.3681 54.6806 17.2892 54.7344 16.1925L54.7789 15.3248C54.8101 14.7092 54.6037 14.1033 54.1963 13.6144C53.7889 13.1254 53.2066 12.785 52.5528 12.6534L51.6326 12.4621C50.4713 12.2209 49.4391 11.6114 48.7163 10.7404L48.145 10.0571C47.7398 9.56862 47.1604 9.22743 46.5088 9.09369C45.8572 8.95996 45.1753 9.04225 44.5831 9.32608L43.7817 9.70186C42.7243 10.2058 41.508 10.351 40.346 10.1118L39.4259 9.92049C38.7744 9.78626 38.0925 9.86743 37.4996 10.1498C36.9067 10.4321 36.4406 10.8976 36.1831 11.4646L35.7972 12.2981C35.3393 13.3106 34.5093 14.1426 33.4523 14.6484L32.6509 15.0311C32.0579 15.3133 31.592 15.7791 31.3355 16.3466C31.0789 16.914 31.0481 17.5466 31.2484 18.1329L31.5304 18.9596C31.8853 20.0049 31.8301 21.1318 31.3746 22.1435L31.011 22.9429C30.7542 23.5098 30.7228 24.1419 30.9223 24.728C31.1219 25.3141 31.5395 25.8167 32.1018 26.1472L32.8958 26.6118C33.8996 27.2028 34.6456 28.1001 35.0032 29.1466L35.2852 29.9733C35.4852 30.559 35.9026 31.0612 36.4642 31.3922C37.0258 31.7232 37.6959 31.8618 38.3573 31.7838L39.2923 31.6745C39.4965 31.6493 39.7022 31.6356 39.9082 31.6335Z" fill="#3E6177"/>
<path id="Vector_11" d="M15.309 58.8671C14.3052 58.8671 13.3238 58.593 12.4892 58.0795C11.6545 57.566 11.0039 56.8361 10.6198 55.9822C10.2356 55.1282 10.1351 54.1886 10.3309 53.2821C10.5268 52.3755 11.0102 51.5428 11.72 50.8893C12.4299 50.2357 13.3343 49.7906 14.3188 49.6103C15.3034 49.43 16.324 49.5225 17.2514 49.8762C18.1789 50.2299 18.9716 50.8289 19.5293 51.5974C20.087 52.366 20.3847 53.2695 20.3847 54.1938C20.3827 55.4327 19.8473 56.6203 18.8959 57.4963C17.9444 58.3723 16.6546 58.8653 15.309 58.8671ZM15.309 51.5702C14.7455 51.5702 14.1945 51.7241 13.726 52.0123C13.2574 52.3006 12.8921 52.7104 12.6765 53.1898C12.4608 53.6692 12.4044 54.1967 12.5143 54.7056C12.6243 55.2146 12.8956 55.682 13.2942 56.049C13.6927 56.4159 14.2004 56.6657 14.7531 56.767C15.3059 56.8682 15.8788 56.8163 16.3995 56.6177C16.9202 56.4191 17.3652 56.0828 17.6783 55.6514C17.9914 55.2199 18.1585 54.7127 18.1585 54.1938C18.1566 53.4991 17.8555 52.8336 17.3213 52.343C16.7871 51.8525 16.0635 51.577 15.309 51.577V51.5702Z" fill="#3E6177"/>
<path id="Vector_12" d="M39.2773 68.3981C40.4822 68.3981 41.459 67.4988 41.459 66.3894C41.459 65.2801 40.4822 64.3807 39.2773 64.3807C38.0725 64.3807 37.0957 65.2801 37.0957 66.3894C37.0957 67.4988 38.0725 68.3981 39.2773 68.3981Z" fill="#2F55D4"/>
<path id="Vector_13" d="M24.2207 5.65713C25.4256 5.65713 26.4023 4.75781 26.4023 3.64844C26.4023 2.53906 25.4256 1.63974 24.2207 1.63974C23.0158 1.63974 22.0391 2.53906 22.0391 3.64844C22.0391 4.75781 23.0158 5.65713 24.2207 5.65713Z" fill="#2F55D4"/>
<path id="Vector_14" d="M68.5957 14.4093C69.8006 14.4093 70.7773 13.51 70.7773 12.4006C70.7773 11.2912 69.8006 10.3919 68.5957 10.3919C67.3908 10.3919 66.4141 11.2912 66.4141 12.4006C66.4141 13.51 67.3908 14.4093 68.5957 14.4093Z" fill="#D5DFEB"/>
<g id="Group" opacity="0.3">
<path id="Vector_15" opacity="0.3" d="M44.2094 14.066L36.6826 21.3637L38.2969 22.7752L45.8237 15.4774L44.2094 14.066Z" fill="#3E6177"/>
<path id="Vector_16" opacity="0.3" d="M46.5845 17.7211L41.8281 22.4653L43.4639 23.8556L48.2203 19.1113L46.5845 17.7211Z" fill="#3E6177"/>
</g>
<path id="Vector_17" d="M37.1564 42.3484L32.5225 51.6289L33.8709 52.1997L38.5048 42.9192L37.1564 42.3484Z" fill="white"/>
<path id="Vector_18" d="M31.8638 52.954L29.877 56.9331L31.2254 57.5039L33.2122 53.5247L31.8638 52.954Z" fill="white"/>
<path id="Vector_19" d="M29.2146 58.2452L28.5508 59.5734L29.899 60.1447L30.5628 58.8164L29.2146 58.2452Z" fill="white"/>
<path id="Vector_20" d="M68.5066 60.1857H67.0225V68.8559H68.5066V60.1857Z" fill="white"/>
<path id="Vector_21" d="M68.5066 70.0925H67.0225V73.8093H68.5066V70.0925Z" fill="white"/>
<path id="Vector_22" d="M68.5066 75.046H67.0225V76.2826H68.5066V75.046Z" fill="white"/>
<path id="Vector_23" d="M66.5035 76.7472C77.2286 76.7472 85.923 68.742 85.923 58.8671C85.923 48.9922 77.2286 40.987 66.5035 40.987C55.7784 40.987 47.084 48.9922 47.084 58.8671C47.084 68.742 55.7784 76.7472 66.5035 76.7472Z" fill="white"/>
<path id="Vector_24" d="M67.1786 73.372C75.8791 73.372 82.9324 66.8779 82.9324 58.8671C82.9324 50.8562 75.8791 44.3621 67.1786 44.3621C58.478 44.3621 51.4248 50.8562 51.4248 58.8671C51.4248 66.8779 58.478 73.372 67.1786 73.372Z" fill="#2F55D4"/>
<path id="Vector_25" d="M66.5036 74.3969C63.1676 74.3969 59.9066 73.4861 57.1329 71.7796C54.3591 70.0732 52.1972 67.6478 50.9206 64.8101C49.644 61.9724 49.31 58.8498 49.9608 55.8374C50.6116 52.8249 52.218 50.0577 54.5769 47.8858C56.9358 45.714 59.9412 44.2349 63.213 43.6357C66.4849 43.0364 69.8762 43.344 72.9582 44.5194C76.0403 45.6948 78.6745 47.6853 80.5278 50.2392C82.3812 52.793 83.3704 55.7956 83.3704 58.8671C83.3645 62.9842 81.5856 66.9311 78.4237 69.8423C75.2619 72.7536 70.9751 74.3915 66.5036 74.3969ZM66.5036 45.3801C63.6079 45.3801 60.7773 46.1707 58.3696 47.6519C55.962 49.1331 54.0855 51.2385 52.9773 53.7016C51.8692 56.1648 51.5793 58.8752 52.1442 61.4901C52.7091 64.105 54.1035 66.5069 56.151 68.3921C58.1986 70.2774 60.8073 71.5612 63.6473 72.0814C66.4873 72.6015 69.4311 72.3345 72.1063 71.3143C74.7816 70.294 77.0681 68.5662 78.6769 66.3494C80.2856 64.1326 81.1443 61.5264 81.1443 58.8602C81.1364 55.2879 79.5912 51.8641 76.847 49.3388C74.1028 46.8134 70.3834 45.3924 66.5036 45.387V45.3801Z" fill="#3E6177"/>
<path id="Vector_26" d="M65.0781 65.3441C64.7858 65.3434 64.5008 65.2599 64.2618 65.105L58.5703 61.436C58.3282 61.2802 58.1633 61.0422 58.1118 60.7744C58.0603 60.5066 58.1264 60.2309 58.2957 60.0081C58.465 59.7852 58.7234 59.6333 59.0143 59.5859C59.3051 59.5385 59.6045 59.5994 59.8466 59.7553L64.9 63.0143L73.159 52.8751C73.2467 52.7675 73.3566 52.6768 73.4824 52.6082C73.6081 52.5396 73.7474 52.4945 73.8921 52.4755C74.0368 52.4565 74.1841 52.4639 74.3257 52.4973C74.4673 52.5307 74.6004 52.5894 74.7173 52.6702C74.8343 52.7509 74.9328 52.8521 75.0073 52.9679C75.0817 53.0837 75.1307 53.2119 75.1514 53.3451C75.172 53.4783 75.164 53.614 75.1277 53.7444C75.0915 53.8748 75.0276 53.9973 74.9399 54.105L66.2208 64.8112C66.0887 64.976 65.9166 65.11 65.7182 65.2025C65.5197 65.2951 65.3005 65.3436 65.0781 65.3441Z" fill="white"/>
</g>
</g>
</g>
<defs>
<clipPath id="clip0_93_1214">
<rect width="88" height="88" fill="white"/>
</clipPath>
</defs>
</svg>
