<svg width="88" height="88" viewBox="0 0 88 88" fill="none" xmlns="http://www.w3.org/2000/svg">
<g id="Asset189 1" clip-path="url(#clip0_93_1248)">
<g id="Layer 2">
<g id="Layer 1">
<path id="Vector" d="M82.3608 17.9577C83.3362 17.9577 84.1269 17.167 84.1269 16.1916C84.1269 15.2162 83.3362 14.4255 82.3608 14.4255C81.3854 14.4255 80.5947 15.2162 80.5947 16.1916C80.5947 17.167 81.3854 17.9577 82.3608 17.9577Z" fill="#D5DFEB"/>
<path id="Vector_2" opacity="0.15" d="M56.3262 5.43008L5.42928 56.327C-1.81546 63.5717 -1.81546 75.3178 5.42928 82.5625C12.674 89.8072 24.4201 89.8072 31.6648 82.5625L82.5617 31.6656C89.8064 24.4209 89.8064 12.6748 82.5617 5.43007C75.317 -1.81466 63.5709 -1.81466 56.3262 5.43008Z" fill="#2F55D4"/>
<path id="Vector_3" d="M76.5136 22.4471V23.9683C76.5745 30.0086 75.8714 36.0324 74.421 41.8963C74.3691 42.104 74.3171 42.3044 74.2578 42.5048C73.4961 45.3413 72.4855 48.1051 71.2376 50.7638L70.9927 51.2758C70.5401 52.2108 70.0503 53.1384 69.5086 54.0363L69.4344 54.1624L69.145 54.6447C67.6821 57.0839 65.9632 59.36 64.0174 61.4345C62.5883 62.9525 61.0317 64.3452 59.3648 65.5974C57.8807 66.7847 55.8475 67.5861 55.1351 69.5303C54.5222 71.0486 54.5063 72.7425 55.0906 74.272C56.0181 76.2607 58.593 76.654 60.5001 77.0621C62.4072 77.4703 65.7316 78.101 64.8114 80.7724C64.2846 82.3084 62.5853 82.3901 61.1828 82.3901H36.4947C35.1219 82.3901 33.3929 82.3084 32.8661 80.7724C32.8008 80.5899 32.756 80.4008 32.7325 80.2084C32.4283 77.9823 35.441 77.4035 37.1848 77.025C39.0919 76.6169 41.6371 76.2236 42.5944 74.2349C42.8556 73.6753 43.0068 73.0707 43.0396 72.454C43.078 71.4636 42.9217 70.4753 42.5796 69.5452C41.8375 67.601 39.8711 66.7773 38.3202 65.6123C36.6558 64.3597 35.1017 62.967 33.6749 61.4494C31.7292 59.3748 30.0103 57.0987 28.5473 54.6596L28.1986 54.1698L28.1244 54.0437C27.5975 53.1384 27.1078 52.2182 26.6403 51.2832L26.3954 50.7712C25.1526 48.112 24.1469 45.3482 23.3901 42.5122C23.3381 42.3118 23.2788 42.104 23.2268 41.9037C21.7883 36.0358 21.0977 30.0095 21.1713 23.9683V22.4471C21.1713 21.7347 21.3116 21.0294 21.5842 20.3712C21.8568 19.7131 22.2564 19.1151 22.7601 18.6114C23.2638 18.1077 23.8618 17.7082 24.5199 17.4356C25.178 17.163 25.8834 17.0227 26.5957 17.0227H71.1189C72.5524 17.0305 73.9245 17.6055 74.9353 18.6219C75.9462 19.6383 76.5136 21.0136 76.5136 22.4471Z" fill="white"/>
<path id="Vector_4" d="M47.6106 79.9933C48.1192 79.9944 48.6225 79.8909 49.0894 79.6893C49.5563 79.4878 49.9768 79.1923 50.3247 78.8214C50.6726 78.4506 50.9406 78.0121 51.112 77.5333C51.2834 77.0545 51.3545 76.5456 51.3209 76.0381C51.1354 73.3296 50.5195 70.4801 51.6771 67.8755C52.9163 65.1151 55.6248 63.4752 57.7916 61.5161C68.1136 52.1811 70.9482 38.2899 71.527 25.0294C71.616 22.9517 70.8295 20.8368 68.351 20.8368H24.7035C24.404 20.8337 24.1072 20.8932 23.832 21.0114C23.5568 21.1296 23.3093 21.3039 23.1054 21.5232C22.9014 21.7425 22.7455 22.002 22.6476 22.285C22.5497 22.5681 22.5119 22.8684 22.5367 23.1669C23.0472 31.7062 25.0357 40.0921 28.4137 47.9514C29.9895 51.6011 32.0594 55.0168 34.5654 58.1027C36.7322 60.7147 39.7597 62.555 42.0304 65.1596C45.0654 68.6027 44.7983 71.9494 44.3456 76.2904C44.1601 78.0713 44.8279 80.0007 46.9651 80.0007L47.6106 79.9933Z" fill="#D5DFEB"/>
<path id="Vector_5" d="M60.4476 83.5328H35.752C34.498 83.5328 31.886 83.5328 31.0771 81.1657C30.9873 80.9109 30.9251 80.6472 30.8916 80.3791V80.3123C30.5354 77.1957 34.2457 76.3943 36.0414 76.0084L36.6648 75.8748C38.3344 75.5261 40.2266 75.1328 40.8425 73.7971C41.0384 73.3572 41.1468 72.8834 41.1616 72.402C41.1923 71.5527 41.0562 70.7057 40.7609 69.9087C40.3528 68.7882 39.2768 68.0833 38.134 67.3412C37.7185 67.0741 37.2881 66.7921 36.88 66.4879C35.1652 65.1972 33.564 63.7623 32.0937 62.1988C30.092 60.068 28.3233 57.7296 26.8177 55.2235L26.5283 54.7264L27.4559 54.0882L26.4986 54.6596L26.4615 54.5928C25.9347 53.6801 25.4227 52.7302 24.9774 51.7581L24.9329 51.6691L24.7251 51.2239C23.4559 48.5095 22.4279 45.6887 21.653 42.7941C21.5937 42.5938 21.5417 42.3786 21.4898 42.1708C19.9943 36.22 19.2563 30.1041 19.2933 23.9683V22.4471C19.2953 20.7138 19.9847 19.0521 21.2103 17.8265C22.4359 16.601 24.0976 15.9116 25.8308 15.9096H70.354C72.0872 15.9116 73.7489 16.601 74.9745 17.8265C76.2001 19.0521 76.8895 20.7138 76.8914 22.4471V23.9683C76.9505 30.1037 76.2349 36.222 74.7617 42.1782C74.7098 42.386 74.6504 42.5938 74.5985 42.8016C73.8191 45.6861 72.7886 48.4968 71.519 51.2016L71.2741 51.721C70.8066 52.6931 70.2946 53.643 69.79 54.5557L69.419 55.179C67.913 57.6848 66.1443 60.0231 64.143 62.1543C62.6727 63.7177 61.0714 65.1526 59.3567 66.4434C58.9486 66.7476 58.5182 67.0296 58.1027 67.2967C56.9599 68.0388 55.8765 68.7437 55.4684 69.8642C54.9663 71.1067 54.9373 72.4901 55.3868 73.7526C56.0101 75.0883 57.8949 75.4816 59.5645 75.8303L60.1953 75.9639C61.7387 76.2978 64.0613 76.795 64.9889 78.4349C65.2094 78.8441 65.3377 79.2967 65.3646 79.7608C65.3915 80.2248 65.3165 80.6892 65.1447 81.1212C64.3136 83.5328 61.7016 83.5328 60.4476 83.5328ZM43.18 81.3067H60.4476C62.132 81.3067 62.7999 81.0841 63.0225 80.4459C63.0876 80.3104 63.1214 80.1621 63.1214 80.0118C63.1214 79.8615 63.0876 79.7131 63.0225 79.5777C62.5921 78.8356 60.7073 78.4052 59.6981 78.1901L59.0822 78.0565C57.1157 77.6484 54.4295 77.0844 53.3387 74.7395C52.6253 72.9453 52.6253 70.9461 53.3387 69.1519C53.9991 67.3264 55.5129 66.3469 56.8486 65.4416C57.2345 65.1893 57.5906 64.9444 57.9765 64.6995C59.5901 63.4847 61.097 62.1342 62.4808 60.6628C64.3724 58.647 66.044 56.4356 67.4674 54.0659L67.7865 53.5242C68.3207 52.6041 68.8031 51.6988 69.2706 50.7786L69.508 50.2889C70.7327 47.6876 71.7259 44.9835 72.4762 42.2079C72.5282 42.0076 72.5875 41.8146 72.6321 41.6143C74.0573 35.8397 74.7479 29.9084 74.6875 23.9609V22.4471C74.6875 21.3036 74.2333 20.207 73.4248 19.3985C72.6163 18.59 71.5196 18.1357 70.3762 18.1357H25.8531C25.285 18.1328 24.722 18.2422 24.1964 18.4575C23.6707 18.6729 23.1928 18.99 22.7901 19.3906C22.3874 19.7912 22.0678 20.2675 21.8498 20.792C21.6317 21.3166 21.5195 21.879 21.5195 22.4471V23.9683C21.4666 29.9143 22.1647 35.8432 23.5972 41.6143L23.7531 42.2079C24.5038 44.981 25.497 47.6825 26.7213 50.2815L26.9587 50.7861C27.404 51.6988 27.8863 52.6041 28.3835 53.4723L28.7322 54.0659C30.155 56.436 31.8266 58.6475 33.7188 60.6628C35.1024 62.1343 36.6093 63.4848 38.2231 64.6995C38.5793 64.9667 38.9651 65.219 39.351 65.4416C40.6867 66.3098 42.2005 67.2967 42.8609 69.1147C43.2546 70.1849 43.4336 71.3221 43.3878 72.4614C43.3581 73.2306 43.1792 73.9867 42.8609 74.6876C41.7701 77.0325 39.0839 77.5964 37.1174 78.0045L36.5015 78.1381C34.2754 78.613 32.9693 79.0954 33.1029 80.0452V80.1194C33.1196 80.2105 33.1445 80.2999 33.1771 80.3865C33.3997 81.0395 34.075 81.2621 35.752 81.2621H43.1726L43.18 81.3067Z" fill="#3E6177"/>
<path id="Vector_6" d="M54.9121 13.9283C54.0565 13.9283 53.2201 13.6746 52.5086 13.1992C51.7972 12.7239 51.2427 12.0482 50.9153 11.2577C50.5878 10.4672 50.5021 9.59735 50.6691 8.75816C50.836 7.91897 51.248 7.14812 51.853 6.54309C52.4581 5.93807 53.2289 5.52604 54.0681 5.35911C54.9073 5.19219 55.7772 5.27786 56.5677 5.6053C57.3582 5.93273 58.0338 6.48723 58.5092 7.19866C58.9845 7.9101 59.2383 8.74652 59.2383 9.60215C59.2363 10.7489 58.7799 11.8482 57.969 12.659C57.1581 13.4699 56.0589 13.9264 54.9121 13.9283ZM54.9121 7.50214C54.4968 7.50214 54.0907 7.62531 53.7454 7.85606C53.4001 8.08681 53.1309 8.41479 52.972 8.79852C52.813 9.18224 52.7714 9.60448 52.8525 10.0118C52.9335 10.4192 53.1335 10.7934 53.4272 11.0871C53.7209 11.3808 54.095 11.5808 54.5024 11.6618C54.9098 11.7428 55.332 11.7013 55.7157 11.5423C56.0995 11.3834 56.4274 11.1142 56.6582 10.7689C56.8889 10.4235 57.0121 10.0175 57.0121 9.60215C57.0121 9.0452 56.7909 8.51105 56.397 8.11722C56.0032 7.7234 55.4691 7.50214 54.9121 7.50214Z" fill="#3E6177"/>
<path id="Vector_7" d="M25.3037 67.9275C24.4481 67.9275 23.6117 67.6737 22.9002 67.1984C22.1888 66.723 21.6343 66.0474 21.3069 65.2569C20.9794 64.4664 20.8937 63.5965 21.0607 62.7573C21.2276 61.9181 21.6396 61.1473 22.2446 60.5422C22.8497 59.9372 23.6205 59.5252 24.4597 59.3583C25.2989 59.1913 26.1688 59.277 26.9593 59.6045C27.7498 59.9319 28.4254 60.4864 28.9008 61.1978C29.3761 61.9093 29.6299 62.7457 29.6299 63.6013C29.6279 64.7481 29.1715 65.8473 28.3606 66.6582C27.5497 67.4691 26.4505 67.9255 25.3037 67.9275ZM25.3037 61.5013C24.8884 61.5013 24.4823 61.6245 24.137 61.8552C23.7917 62.086 23.5225 62.4139 23.3636 62.7977C23.2046 63.1814 23.163 63.6036 23.244 64.011C23.3251 64.4184 23.5251 64.7925 23.8188 65.0862C24.1125 65.3799 24.4867 65.5799 24.894 65.661C25.3014 65.742 25.7236 65.7004 26.1073 65.5415C26.4911 65.3825 26.819 65.1134 27.0498 64.768C27.2806 64.4227 27.4037 64.0166 27.4037 63.6013C27.4037 63.3255 27.3494 63.0525 27.2439 62.7977C27.1383 62.5429 26.9836 62.3114 26.7886 62.1164C26.5936 61.9214 26.3621 61.7667 26.1073 61.6612C25.8526 61.5556 25.5795 61.5013 25.3037 61.5013Z" fill="#2F55D4"/>
<path id="Vector_8" d="M75.9272 59.0971C76.9026 59.0971 77.6933 58.3064 77.6933 57.331C77.6933 56.3556 76.9026 55.5649 75.9272 55.5649C74.9518 55.5649 74.1611 56.3556 74.1611 57.331C74.1611 58.3064 74.9518 59.0971 75.9272 59.0971Z" fill="#2F55D4"/>
<path id="Vector_9" d="M40.5757 11.5315C41.551 11.5315 42.3417 10.7408 42.3417 9.7654C42.3417 8.79002 41.551 7.99931 40.5757 7.99931C39.6003 7.99931 38.8096 8.79002 38.8096 9.7654C38.8096 10.7408 39.6003 11.5315 40.5757 11.5315Z" fill="#D5DFEB"/>
<path id="Vector_10" d="M35.4331 72.6024C36.4085 72.6024 37.1992 71.8117 37.1992 70.8363C37.1992 69.8609 36.4085 69.0702 35.4331 69.0702C34.4577 69.0702 33.667 69.8609 33.667 70.8363C33.667 71.8117 34.4577 72.6024 35.4331 72.6024Z" fill="#D5DFEB"/>
<path id="Vector_11" d="M60.3439 23.9683H51.3428V25.4524H60.3439V23.9683Z" fill="white"/>
<path id="Vector_12" d="M65.4866 23.9683H61.6279V25.4524H65.4866V23.9683Z" fill="white"/>
<path id="Vector_13" d="M68.0543 23.9683H66.7705V25.4524H68.0543V23.9683Z" fill="white"/>
<path id="Vector_14" d="M71.4445 51.8546H70.3018V49.6285H71.4371C73.2248 49.6245 74.9383 48.9126 76.2024 47.6485C77.4665 46.3844 78.1784 44.671 78.1824 42.8832C78.1796 40.6319 79.0247 38.4621 80.5495 36.8058L81.1283 36.1751C82.0167 35.211 82.605 34.0089 82.8211 32.7159C83.0371 31.4228 82.8717 30.0948 82.3451 28.8942C81.8184 27.6937 80.9533 26.6726 79.8555 25.9559C78.7578 25.2392 77.475 24.858 76.164 24.8588H75.4219V22.6326H76.164C77.9073 22.6316 79.6132 23.1387 81.0731 24.0917C82.5329 25.0447 83.6834 26.4024 84.384 27.9988C85.0846 29.5952 85.3049 31.3611 85.0179 33.0807C84.731 34.8003 83.9492 36.399 82.7682 37.6814L82.1894 38.3122C81.0419 39.5575 80.4059 41.1897 80.4085 42.8832C80.4046 45.2601 79.4592 47.5386 77.7791 49.22C76.0991 50.9014 73.8214 51.8487 71.4445 51.8546Z" fill="#3E6177"/>
<path id="Vector_15" d="M25.6302 51.8546H24.4874C22.1092 51.8507 19.8296 50.9042 18.148 49.2226C16.4664 47.541 15.5199 45.2614 15.516 42.8832C15.5186 41.1897 14.8826 39.5575 13.7351 38.3122L13.1563 37.6814C11.9753 36.399 11.1935 34.8003 10.9065 33.0807C10.6196 31.3611 10.8399 29.5952 11.5405 27.9988C12.2411 26.4024 13.3916 25.0447 14.8514 24.0917C16.3113 23.1387 18.0172 22.6316 19.7605 22.6326H20.5026V24.8588H19.7605C18.4495 24.858 17.1667 25.2392 16.069 25.9559C14.9712 26.6726 14.1061 27.6937 13.5794 28.8942C13.0527 30.0948 12.8873 31.4228 13.1034 32.7159C13.3195 34.0089 13.9078 35.211 14.7962 36.1751L15.375 36.8058C16.9004 38.4617 17.7457 40.6318 17.7421 42.8832C17.7461 44.671 18.458 46.3844 19.7221 47.6485C20.9862 48.9126 22.6996 49.6245 24.4874 49.6285H25.6227L25.6302 51.8546Z" fill="#3E6177"/>
<path id="Vector_16" d="M22.0831 43.2765C32.3329 43.2765 40.6419 34.9675 40.6419 24.7178C40.6419 14.4681 32.3329 6.15903 22.0831 6.15903C11.8334 6.15903 3.52441 14.4681 3.52441 24.7178C3.52441 34.9675 11.8334 43.2765 22.0831 43.2765Z" fill="white"/>
<path id="Vector_17" d="M22.7291 39.774C31.0444 39.774 37.7853 33.0331 37.7853 24.7178C37.7853 16.4024 31.0444 9.66151 22.7291 9.66151C14.4138 9.66151 7.67285 16.4024 7.67285 24.7178C7.67285 33.0331 14.4138 39.774 22.7291 39.774Z" fill="#2F55D4"/>
<path id="Vector_18" d="M22.0838 40.8871C18.8861 40.8856 15.7607 39.9361 13.1026 38.1585C10.4446 36.3809 8.37325 33.855 7.15057 30.9004C5.92789 27.9457 5.60874 24.6948 6.23348 21.5587C6.85821 18.4227 8.39878 15.5423 10.6604 13.2817C12.922 11.0211 15.8031 9.48188 18.9395 8.85859C22.0758 8.23529 25.3265 8.55593 28.2807 9.77996C31.2348 11.004 33.7596 13.0765 35.536 15.7353C37.3124 18.3942 38.2605 21.5201 38.2605 24.7178C38.2546 29.0056 36.5482 33.116 33.5155 36.1473C30.4828 39.1786 26.3716 40.8832 22.0838 40.8871ZM22.0838 10.7672C19.3267 10.7686 16.632 11.5875 14.3402 13.1201C12.0484 14.6528 10.2624 16.8305 9.20798 19.3779C8.15358 21.9254 7.87808 24.7283 8.41632 27.4323C8.95455 30.1364 10.2824 32.6201 12.2319 34.5696C14.1814 36.5192 16.6652 37.847 19.3692 38.3852C22.0732 38.9235 24.8761 38.648 27.4236 37.5936C29.9711 36.5392 32.1488 34.7532 33.6814 32.4614C35.2141 30.1696 36.0329 27.4748 36.0344 24.7178C36.0304 21.019 34.5594 17.4729 31.944 14.8575C29.3286 12.2422 25.7825 10.7711 22.0838 10.7672Z" fill="#3E6177"/>
<path id="Vector_19" d="M20.5546 31.4853C20.2623 31.4845 19.9774 31.3938 19.7384 31.2256L14.0468 27.2407C13.927 27.1569 13.8248 27.0504 13.7461 26.9271C13.6675 26.8038 13.6138 26.6662 13.5883 26.5222C13.5369 26.2313 13.603 25.9319 13.7723 25.6899C13.9415 25.4478 14.2 25.2829 14.4908 25.2314C14.7817 25.1799 15.0811 25.246 15.3232 25.4153L20.384 28.94L28.6356 17.9428C28.8147 17.7057 29.0806 17.5494 29.375 17.5083C29.6693 17.4673 29.9679 17.5448 30.205 17.7239C30.4422 17.903 30.5985 18.169 30.6395 18.4633C30.6806 18.7576 30.603 19.0562 30.4239 19.2934L21.6974 30.9065C21.5653 31.0855 21.3932 31.2311 21.1947 31.3316C20.9963 31.4321 20.7771 31.4847 20.5546 31.4853Z" fill="white"/>
</g>
</g>
</g>
<defs>
<clipPath id="clip0_93_1248">
<rect width="88" height="88" fill="white"/>
</clipPath>
</defs>
</svg>
