<svg width="88" height="88" viewBox="0 0 88 88" fill="none" xmlns="http://www.w3.org/2000/svg">
<g id="Asset192 1" clip-path="url(#clip0_93_1274)">
<g id="Layer 2">
<g id="Layer 1">
<path id="Vector" opacity="0.15" d="M56.3262 5.43008L5.42928 56.327C-1.81546 63.5717 -1.81546 75.3178 5.42928 82.5625C12.674 89.8072 24.4201 89.8072 31.6648 82.5625L82.5617 31.6656C89.8064 24.4209 89.8064 12.6748 82.5617 5.43007C75.317 -1.81466 63.5709 -1.81466 56.3262 5.43008Z" fill="#2F55D4"/>
<path id="Vector_2" d="M60.2104 3.1834C61.6675 3.17943 63.067 3.75246 64.1029 4.77724C65.1388 5.80203 65.7269 7.19522 65.7387 8.65233L65.8055 16.8149L65.9539 72.083L63.9355 70.2056C63.82 70.1028 63.6708 70.0461 63.5163 70.0461C63.3617 70.0461 63.2125 70.1028 63.097 70.2056L60.2698 72.8547L57.4277 70.1982C57.3122 70.0954 57.163 70.0387 57.0084 70.0387C56.8539 70.0387 56.7047 70.0954 56.5892 70.1982L53.762 72.8473L50.9199 70.2056C50.8044 70.1028 50.6552 70.0461 50.5006 70.0461C50.3461 70.0461 50.1969 70.1028 50.0814 70.2056L47.2393 72.8696L44.3973 70.2278C44.2818 70.1251 44.1326 70.0683 43.978 70.0683C43.8234 70.0683 43.6742 70.1251 43.5588 70.2278L40.7315 72.877L37.8449 70.2501C37.7295 70.1474 37.5803 70.0906 37.4257 70.0906C37.2711 70.0906 37.1219 70.1474 37.0064 70.2501L34.2089 72.8992L31.3668 70.2575C31.2521 70.1532 31.1026 70.0955 30.9476 70.0955C30.7925 70.0955 30.643 70.1532 30.5283 70.2575L27.7011 72.9067L24.859 70.2649C24.7443 70.1607 24.5948 70.1029 24.4398 70.1029C24.2847 70.1029 24.1352 70.1607 24.0205 70.2649L21.1933 72.9141L18.3438 70.2724C18.2291 70.1681 18.0796 70.1103 17.9245 70.1103C17.7695 70.1103 17.62 70.1681 17.5053 70.2724L15.5017 72.1498L15.3311 8.79332C15.3291 8.06866 15.47 7.35072 15.7458 6.68057C16.0215 6.01042 16.4267 5.40119 16.938 4.88775C17.4494 4.3743 18.057 3.9667 18.726 3.68826C19.3951 3.40982 20.1124 3.266 20.8371 3.26503L60.2104 3.1834Z" fill="#FF8DD9"/>
<path id="Vector_3" d="M60.2104 3.1834C61.6675 3.17943 63.067 3.75246 64.1029 4.77724C65.1388 5.80203 65.7269 7.19522 65.7387 8.65233L65.8055 16.8149L65.9539 72.083L63.9355 70.2056C63.82 70.1028 63.6708 70.0461 63.5163 70.0461C63.3617 70.0461 63.2125 70.1028 63.097 70.2056L60.2698 72.8547L57.4277 70.1982C57.3122 70.0954 57.163 70.0387 57.0084 70.0387C56.8539 70.0387 56.7047 70.0954 56.5892 70.1982L53.762 72.8473L50.9199 70.2056C50.8044 70.1028 50.6552 70.0461 50.5006 70.0461C50.3461 70.0461 50.1969 70.1028 50.0814 70.2056L47.2393 72.8696L44.3973 70.2278C44.2818 70.1251 44.1326 70.0683 43.978 70.0683C43.8234 70.0683 43.6742 70.1251 43.5588 70.2278L40.7315 72.877L37.8449 70.2501C37.7295 70.1474 37.5803 70.0906 37.4257 70.0906C37.2711 70.0906 37.1219 70.1474 37.0064 70.2501L34.2089 72.8992L31.3668 70.2575C31.2521 70.1532 31.1026 70.0955 30.9476 70.0955C30.7925 70.0955 30.643 70.1532 30.5283 70.2575L27.7011 72.9067L24.859 70.2649C24.7443 70.1607 24.5948 70.1029 24.4398 70.1029C24.2847 70.1029 24.1352 70.1607 24.0205 70.2649L21.1933 72.9141L18.3438 70.2724C18.2291 70.1681 18.0796 70.1103 17.9245 70.1103C17.7695 70.1103 17.62 70.1681 17.5053 70.2724L15.5017 72.1498L15.3311 8.79332C15.3291 8.06866 15.47 7.35072 15.7458 6.68057C16.0215 6.01042 16.4267 5.40119 16.938 4.88775C17.4494 4.3743 18.057 3.9667 18.726 3.68826C19.3951 3.40982 20.1124 3.266 20.8371 3.26503L60.2104 3.1834Z" fill="white"/>
<path id="Vector_4" d="M14.3814 74.7395L14.2033 8.82299C14.1965 7.94967 14.3623 7.08361 14.6914 6.27461C15.0204 5.46561 15.5061 4.72962 16.1205 4.10898C16.7349 3.48833 17.466 2.99526 18.2717 2.65813C19.0773 2.321 19.9417 2.14645 20.815 2.14452L60.2032 2.04063C61.9475 2.05399 63.6175 2.74934 64.8558 3.97797C66.0941 5.20661 66.8026 6.871 66.8297 8.61522L66.8965 16.7778L67.0523 74.6134L63.5201 71.3186L60.2699 74.3611L57.0049 71.3261L53.7547 74.3685L50.46 71.3483L47.2098 74.3907L43.9448 71.3632L40.6946 74.4056L37.4296 71.378L34.1794 74.4204L30.9144 71.3929L27.6642 74.4353L24.3991 71.4077L21.1489 74.4501L17.8839 71.4225L14.3814 74.7395ZM17.921 69.0109C18.3559 69.0106 18.7748 69.175 19.0935 69.4709L21.1786 71.4003L23.2489 69.4561C23.5691 69.1572 23.9908 68.991 24.4288 68.991C24.8668 68.991 25.2885 69.1572 25.6087 69.4561L27.6864 71.3854L29.7567 69.4487C30.0773 69.1476 30.5006 68.9801 30.9403 68.9801C31.3801 68.9801 31.8033 69.1476 32.1239 69.4487L34.2016 71.378L36.272 69.4338C36.5925 69.1387 37.0124 68.9748 37.4481 68.9748C37.8839 68.9748 38.3037 69.1387 38.6243 69.4338L40.7094 71.3706L42.7798 69.4338C43.1008 69.1366 43.5221 68.9714 43.9596 68.9714C44.3971 68.9714 44.8185 69.1366 45.1395 69.4338L47.2247 71.3632L49.295 69.4264C49.6168 69.1307 50.0378 68.9667 50.4748 68.9667C50.9118 68.9667 51.3329 69.1307 51.6547 69.4264L53.7399 71.3632L55.8102 69.419C56.1308 69.1238 56.5506 68.96 56.9864 68.96C57.4221 68.96 57.8419 69.1238 58.1625 69.419L60.2477 71.3558L62.3329 69.3819C62.6538 69.0846 63.0752 68.9195 63.5127 68.9195C63.9502 68.9195 64.3716 69.0846 64.6926 69.3819L64.841 69.5155L64.7 16.8297L64.6332 8.66716C64.6102 7.51077 64.138 6.40874 63.3167 5.59435C62.4954 4.77997 61.3894 4.31716 60.2328 4.30389L20.8447 4.40778C20.2631 4.40872 19.6874 4.52496 19.151 4.74978C18.6145 4.9746 18.128 5.30354 17.7195 5.71757C17.311 6.1316 16.9886 6.62251 16.771 7.16191C16.5534 7.70131 16.4449 8.2785 16.4517 8.8601L16.615 69.6565L16.7486 69.5303C17.0584 69.2133 17.4781 69.0273 17.921 69.0109Z" fill="#3E6177"/>
<path id="Vector_5" d="M7.88088 26.5655C7.04726 26.5655 6.23236 26.3183 5.53923 25.8551C4.8461 25.392 4.30587 24.7337 3.98685 23.9636C3.66784 23.1934 3.58437 22.3459 3.747 21.5283C3.90964 20.7107 4.31106 19.9597 4.90052 19.3703C5.48998 18.7808 6.24099 18.3794 7.0586 18.2167C7.8762 18.0541 8.72367 18.1376 9.49383 18.4566C10.264 18.7756 10.9223 19.3158 11.3854 20.009C11.8485 20.7021 12.0957 21.517 12.0957 22.3506C12.0938 23.4679 11.6491 24.5388 10.8591 25.3288C10.069 26.1188 8.99812 26.5635 7.88088 26.5655ZM7.88088 20.3619C7.48755 20.3619 7.10305 20.4786 6.77601 20.6971C6.44897 20.9156 6.19408 21.2262 6.04356 21.5896C5.89304 21.953 5.85365 22.3528 5.93039 22.7386C6.00712 23.1244 6.19653 23.4787 6.47465 23.7568C6.75278 24.035 7.10713 24.2244 7.4929 24.3011C7.87867 24.3778 8.27853 24.3385 8.64192 24.1879C9.00531 24.0374 9.3159 23.7825 9.53442 23.4555C9.75294 23.1284 9.86958 22.7439 9.86958 22.3506C9.87055 22.0888 9.81983 21.8294 9.72033 21.5873C9.62083 21.3452 9.47449 21.125 9.28973 20.9396C9.10496 20.7541 8.8854 20.607 8.64364 20.5066C8.40187 20.4062 8.14266 20.3545 7.88088 20.3545V20.3619Z" fill="#3E6177"/>
<path id="Vector_6" d="M73.0479 65.6642C72.2142 65.6642 71.3993 65.417 70.7062 64.9539C70.0131 64.4907 69.4729 63.8325 69.1538 63.0623C68.8348 62.2921 68.7514 61.4447 68.914 60.6271C69.0766 59.8095 69.4781 59.0585 70.0675 58.469C70.657 57.8795 71.408 57.4781 72.2256 57.3155C73.0432 57.1529 73.8907 57.2363 74.6608 57.5553C75.431 57.8743 76.0893 58.4146 76.5524 59.1077C77.0155 59.8008 77.2627 60.6157 77.2627 61.4494C77.2608 62.5666 76.8161 63.6375 76.0261 64.4275C75.236 65.2176 74.1651 65.6623 73.0479 65.6642ZM73.0479 59.4607C72.6545 59.4607 72.27 59.5773 71.943 59.7958C71.616 60.0143 71.3611 60.3249 71.2105 60.6883C71.06 61.0517 71.0206 61.4516 71.0974 61.8373C71.1741 62.2231 71.3635 62.5775 71.6416 62.8556C71.9198 63.1337 72.2741 63.3231 72.6599 63.3998C73.0457 63.4766 73.4455 63.4372 73.8089 63.2867C74.1723 63.1362 74.4829 62.8813 74.7014 62.5542C74.9199 62.2272 75.0366 61.8427 75.0366 61.4494C75.0366 61.1882 74.9851 60.9296 74.8852 60.6883C74.7852 60.447 74.6388 60.2278 74.4541 60.0431C74.2694 59.8585 74.0502 59.712 73.8089 59.612C73.5676 59.5121 73.309 59.4607 73.0479 59.4607Z" fill="#2F55D4"/>
<path id="Vector_7" d="M10.8268 32.8952C11.7694 32.8952 12.5336 32.1311 12.5336 31.1885C12.5336 30.2459 11.7694 29.4817 10.8268 29.4817C9.88424 29.4817 9.12012 30.2459 9.12012 31.1885C9.12012 32.1311 9.88424 32.8952 10.8268 32.8952Z" fill="#2F55D4"/>
<path id="Vector_8" d="M69.7897 18.0022C70.7323 18.0022 71.4964 17.2381 71.4964 16.2955C71.4964 15.3529 70.7323 14.5887 69.7897 14.5887C68.8471 14.5887 68.083 15.3529 68.083 16.2955C68.083 17.2381 68.8471 18.0022 69.7897 18.0022Z" fill="#D5DFEB"/>
<path id="Vector_9" opacity="0.3" d="M57.0306 50.4353L45.2422 62.8489L46.8565 64.3819L58.6448 51.9682L57.0306 50.4353Z" fill="#2F55D4"/>
<path id="Vector_10" opacity="0.3" d="M57.6494 54.8048L50.2002 62.8746L51.836 64.3846L59.2852 56.3148L57.6494 54.8048Z" fill="#2F55D4"/>
<path id="Vector_11" d="M52.1512 15.2121H25.4669C24.1514 15.2121 23.085 16.2785 23.085 17.5941V18.0912C23.085 19.4068 24.1514 20.4732 25.4669 20.4732H52.1512C53.4667 20.4732 54.5331 19.4068 54.5331 18.0912V17.5941C54.5331 16.2785 53.4667 15.2121 52.1512 15.2121Z" fill="#D5DFEB"/>
<path id="Vector_12" d="M45.866 24.8884H25.4669C24.1514 24.8884 23.085 25.9549 23.085 27.2704V27.7676C23.085 29.0831 24.1514 30.1496 25.4669 30.1496H45.866C47.1815 30.1496 48.248 29.0831 48.248 27.7676V27.2704C48.248 25.9549 47.1815 24.8884 45.866 24.8884Z" fill="#D5DFEB"/>
<path id="Vector_13" d="M39.5734 34.5722H25.4669C24.1514 34.5722 23.085 35.6387 23.085 36.9542V37.4514C23.085 38.7669 24.1514 39.8334 25.4669 39.8334H39.5734C40.8889 39.8334 41.9554 38.7669 41.9554 37.4514V36.9542C41.9554 35.6387 40.8889 34.5722 39.5734 34.5722Z" fill="#D5DFEB"/>
<path id="Vector_14" d="M19.4421 83.3251C29.3393 83.3251 37.3626 75.3018 37.3626 65.4045C37.3626 55.5072 29.3393 47.4839 19.4421 47.4839C9.5448 47.4839 1.52148 55.5072 1.52148 65.4045C1.52148 75.3018 9.5448 83.3251 19.4421 83.3251Z" fill="white"/>
<path id="Vector_15" d="M20.0583 79.9413C28.0868 79.9413 34.5951 73.433 34.5951 65.4045C34.5951 57.376 28.0868 50.8677 20.0583 50.8677C12.0298 50.8677 5.52148 57.376 5.52148 65.4045C5.52148 73.433 12.0298 79.9413 20.0583 79.9413Z" fill="#2F55D4"/>
<path id="Vector_16" d="M19.4419 81.0618C16.3469 81.0618 13.3215 80.1441 10.748 78.4248C8.1746 76.7055 6.16871 74.2618 4.98399 71.4026C3.79926 68.5434 3.48891 65.3971 4.09216 62.3615C4.69542 59.3259 6.18519 56.5374 8.37312 54.3484C10.5611 52.1594 13.3489 50.6683 16.3842 50.0636C19.4195 49.459 22.5659 49.7678 25.4257 50.9512C28.2855 52.1345 30.7302 54.1393 32.4507 56.7119C34.1712 59.2845 35.0903 62.3096 35.0918 65.4045C35.0878 69.5546 33.438 73.5337 30.5041 76.4689C27.5703 79.4042 23.592 81.0559 19.4419 81.0618ZM19.4419 51.9437C16.7885 51.9437 14.1946 52.73 11.9879 54.2034C9.78122 55.6768 8.06066 57.7711 7.04356 60.2218C6.02647 62.6725 5.75848 65.3697 6.27344 67.9726C6.7884 70.5756 8.0632 72.9675 9.93683 74.8463C11.8105 76.7251 14.1989 78.0065 16.8004 78.5286C19.4019 79.0508 22.0998 78.7902 24.5533 77.7799C27.0068 76.7696 29.1058 75.0548 30.5853 72.8522C32.0648 70.6495 32.8583 68.0579 32.8656 65.4045C32.8696 61.8397 31.4577 58.4192 28.9405 55.895C26.4233 53.3708 23.0067 51.9496 19.4419 51.9437Z" fill="#3E6177"/>
<path id="Vector_17" d="M13.4465 63.9056V61.5904C13.4152 61.2725 13.4578 60.9516 13.5711 60.653C13.6844 60.3543 13.8652 60.0859 14.0995 59.8688C14.6061 59.5005 15.2259 59.3219 15.8508 59.3642C16.4813 59.3319 17.1034 59.5208 17.6094 59.8985C17.8418 60.111 18.0221 60.3742 18.1366 60.6675C18.2511 60.9609 18.2967 61.2766 18.2699 61.5904V63.9352C18.2967 64.249 18.2511 64.5647 18.1366 64.8581C18.0221 65.1514 17.8418 65.4145 17.6094 65.6271C17.1034 66.0048 16.4813 66.1937 15.8508 66.1614C15.2196 66.1888 14.5991 65.9916 14.0995 65.6049C13.8684 65.3901 13.6894 65.1253 13.5762 64.8308C13.463 64.5363 13.4187 64.2198 13.4465 63.9056ZM15.0345 63.9056C15.0263 64.0138 15.042 64.1226 15.0805 64.2242C15.1189 64.3257 15.1792 64.4176 15.257 64.4933C15.3349 64.5691 15.4284 64.6268 15.531 64.6624C15.6336 64.698 15.7427 64.7107 15.8508 64.6996C16.4048 64.6996 16.6819 64.4349 16.6819 63.9056V61.5904C16.6819 61.061 16.4048 60.7964 15.8508 60.7964C15.7422 60.784 15.6322 60.7958 15.5287 60.8309C15.4251 60.866 15.3307 60.9236 15.252 60.9994C15.1733 61.0753 15.1123 61.1676 15.0734 61.2697C15.0346 61.3719 15.0187 61.4814 15.0271 61.5904L15.0345 63.9056ZM15.9027 71.289C15.9068 71.1804 15.9346 71.074 15.9843 70.9773L21.6759 59.1045C21.7325 58.9729 21.8286 58.8623 21.9509 58.7878C22.0733 58.7134 22.2157 58.6788 22.3586 58.6889C22.6031 58.6894 22.8395 58.7761 23.0264 58.9338C23.1251 59.0058 23.2045 59.101 23.2576 59.211C23.3107 59.3211 23.3358 59.4425 23.3306 59.5645C23.3312 59.672 23.3084 59.7784 23.2639 59.8762L17.5575 71.7491C17.4913 71.886 17.3846 71.9994 17.2519 72.0737C17.1192 72.148 16.9668 72.1797 16.8154 72.1646C16.6923 72.1674 16.5699 72.1445 16.4562 72.0972C16.3424 72.0499 16.2398 71.9793 16.155 71.89C16.0739 71.8121 16.0092 71.7189 15.9646 71.6157C15.92 71.5125 15.8965 71.4014 15.8953 71.289H15.9027ZM20.9116 69.2261V66.8812C20.884 66.5687 20.9277 66.254 21.0396 65.9609C21.1514 65.6678 21.3284 65.404 21.5571 65.1893C22.0597 64.8105 22.6799 64.6213 23.3084 64.655C23.939 64.6227 24.561 64.8117 25.0671 65.1893C25.2994 65.4019 25.4798 65.665 25.5943 65.9583C25.7088 66.2517 25.7543 66.5674 25.7275 66.8812V69.2261C25.7543 69.5398 25.7088 69.8556 25.5943 70.1489C25.4798 70.4423 25.2994 70.7054 25.0671 70.918C24.561 71.2956 23.939 71.4846 23.3084 71.4522C22.6799 71.486 22.0597 71.2968 21.5571 70.918C21.3284 70.7033 21.1514 70.4394 21.0396 70.1463C20.9277 69.8532 20.884 69.5386 20.9116 69.2261ZM22.4996 69.2261C22.4914 69.3344 22.5071 69.4431 22.5455 69.5447C22.584 69.6463 22.6442 69.7381 22.7221 69.8139C22.7999 69.8896 22.8935 69.9473 22.996 69.9829C23.0986 70.0186 23.2078 70.0312 23.3158 70.0201C23.8699 70.0201 24.1469 69.7554 24.1469 69.2261V66.8812C24.1469 66.3519 23.8699 66.0872 23.3158 66.0872C23.2078 66.076 23.0986 66.0887 22.996 66.1243C22.8935 66.16 22.7999 66.2177 22.7221 66.2934C22.6442 66.3691 22.584 66.461 22.5455 66.5626C22.5071 66.6641 22.4914 66.7729 22.4996 66.8812V69.2261Z" fill="white"/>
</g>
</g>
</g>
<defs>
<clipPath id="clip0_93_1274">
<rect width="88" height="88" fill="white"/>
</clipPath>
</defs>
</svg>
