<svg width="88" height="88" viewBox="0 0 88 88" fill="none" xmlns="http://www.w3.org/2000/svg">
<g id="Asset187 1" clip-path="url(#clip0_93_1298)">
<g id="Layer 2">
<g id="Layer 1">
<path id="Vector" opacity="0.15" d="M57.2469 5.4299L7.82927 56.3268C0.795095 63.5715 0.795095 75.3176 7.82926 82.5623C14.8634 89.8071 26.2681 89.8071 33.3022 82.5623L82.7198 31.6654C89.754 24.4207 89.754 12.6746 82.7198 5.4299C75.6857 -1.81484 64.281 -1.81484 57.2469 5.4299Z" fill="#2F55D4"/>
<path id="Vector_2" d="M22.2197 57.7317V28.7916L67.6103 29.1627V56.6186" fill="white"/>
<path id="Vector_3" d="M36.4638 81.7297L34.5762 80.6314L44.1946 63.1338L54.0941 80.4607L52.2353 81.5887L44.2307 67.5861L36.4638 81.7297Z" fill="#3E6177"/>
<path id="Vector_4" d="M67.9781 28.4132C70.7635 28.4132 73.0215 26.0876 73.0215 23.2188C73.0215 20.35 70.7635 18.0244 67.9781 18.0244L20.4261 18.0244C17.6407 18.0244 15.3827 20.35 15.3827 23.2188C15.3827 26.0876 17.6407 28.4132 20.4261 28.4132L67.9781 28.4132Z" fill="#2F55D4"/>
<path id="Vector_5" d="M74.815 52.1589C73.8887 52.1589 72.9833 51.876 72.2132 51.346C71.443 50.816 70.8428 50.0627 70.4883 49.1813C70.1339 48.3 70.0411 47.3302 70.2218 46.3945C70.4025 45.4589 70.8485 44.5995 71.5035 43.9249C72.1584 43.2503 72.9929 42.791 73.9014 42.6049C74.8098 42.4187 75.7514 42.5143 76.6072 42.8793C77.4629 43.2444 78.1943 43.8626 78.7089 44.6558C79.2235 45.449 79.4981 46.3816 79.4981 47.3355C79.4962 48.6141 79.0022 49.8398 78.1244 50.744C77.2465 51.6481 76.0564 52.1569 74.815 52.1589ZM74.815 44.7383C74.3162 44.7383 73.8287 44.8907 73.414 45.176C72.9993 45.4614 72.6761 45.867 72.4852 46.3416C72.2944 46.8162 72.2444 47.3384 72.3417 47.8422C72.439 48.346 72.6792 48.8088 73.0319 49.172C73.3845 49.5352 73.8339 49.7826 74.323 49.8828C74.8122 49.983 75.3192 49.9316 75.78 49.735C76.2408 49.5384 76.6346 49.2055 76.9117 48.7784C77.1888 48.3513 77.3367 47.8492 77.3367 47.3355C77.3367 46.6467 77.071 45.9861 76.5981 45.499C76.1252 45.012 75.4838 44.7383 74.815 44.7383Z" fill="#2F55D4"/>
<path id="Vector_6" d="M11.4126 51.4168C10.4864 51.4168 9.58097 51.1339 8.81083 50.6039C8.04069 50.0739 7.44043 49.3206 7.08598 48.4393C6.73152 47.5579 6.63878 46.5881 6.81948 45.6525C7.00018 44.7168 7.44621 43.8574 8.10116 43.1829C8.75611 42.5083 9.59057 42.0489 10.499 41.8628C11.4075 41.6767 12.3491 41.7722 13.2048 42.1373C14.0605 42.5024 14.792 43.1206 15.3065 43.9138C15.8211 44.707 16.0958 45.6395 16.0958 46.5935C16.0939 47.8721 15.5999 49.0978 14.722 50.0019C13.8442 50.906 12.6541 51.4148 11.4126 51.4168ZM11.4126 43.9963C10.9139 43.9963 10.4264 44.1486 10.0117 44.434C9.59697 44.7194 9.27376 45.125 9.0829 45.5996C8.89204 46.0741 8.8421 46.5964 8.9394 47.1002C9.0367 47.604 9.27687 48.0667 9.62954 48.43C9.9822 48.7932 10.4315 49.0405 10.9207 49.1407C11.4098 49.241 11.9169 49.1895 12.3777 48.993C12.8384 48.7964 13.2323 48.4635 13.5094 48.0364C13.7864 47.6093 13.9343 47.1071 13.9343 46.5935C13.9343 46.2524 13.8691 45.9147 13.7424 45.5996C13.6157 45.2845 13.4299 44.9982 13.1958 44.757C12.9616 44.5158 12.6836 44.3245 12.3777 44.194C12.0717 44.0635 11.7438 43.9963 11.4126 43.9963Z" fill="#3E6177"/>
<path id="Vector_7" d="M77.5175 60.6925C78.6117 60.6925 79.4988 59.7788 79.4988 58.6518C79.4988 57.5248 78.6117 56.6112 77.5175 56.6112C76.4232 56.6112 75.5361 57.5248 75.5361 58.6518C75.5361 59.7788 76.4232 60.6925 77.5175 60.6925Z" fill="#2F55D4"/>
<path id="Vector_8" d="M70.3124 11.717C71.4066 11.717 72.2937 10.8034 72.2937 9.67636C72.2937 8.54934 71.4066 7.63571 70.3124 7.63571C69.2181 7.63571 68.3311 8.54934 68.3311 9.67636C68.3311 10.8034 69.2181 11.717 70.3124 11.717Z" fill="#2F55D4"/>
<path id="Vector_9" d="M15.5556 40.657C16.6498 40.657 17.5369 39.7434 17.5369 38.6164C17.5369 37.4894 16.6498 36.5758 15.5556 36.5758C14.4613 36.5758 13.5742 37.4894 13.5742 38.6164C13.5742 39.7434 14.4613 40.657 15.5556 40.657Z" fill="#D5DFEB"/>
<path id="Vector_10" d="M67.971 29.8973H20.419C18.7948 29.8973 17.2371 29.2328 16.0886 28.0499C14.9401 26.867 14.2949 25.2627 14.2949 23.5898C14.2949 21.917 14.9401 20.3127 16.0886 19.1298C17.2371 17.9469 18.7948 17.2824 20.419 17.2824H67.971C69.5952 17.2824 71.1529 17.9469 72.3014 19.1298C73.4499 20.3127 74.0951 21.917 74.0951 23.5898C74.0951 25.2627 73.4499 26.867 72.3014 28.0499C71.1529 29.2328 69.5952 29.8973 67.971 29.8973ZM20.419 19.5086C19.3687 19.5105 18.3618 19.9411 17.6191 20.7061C16.8764 21.4711 16.4583 22.508 16.4564 23.5898C16.4583 24.6717 16.8764 25.7086 17.6191 26.4736C18.3618 27.2385 19.3687 27.6692 20.419 27.6711H67.971C69.022 27.6711 70.0299 27.2411 70.7731 26.4757C71.5162 25.7104 71.9337 24.6723 71.9337 23.5898C71.9337 22.5074 71.5162 21.4693 70.7731 20.7039C70.0299 19.9385 69.022 19.5086 67.971 19.5086H20.419Z" fill="#3E6177"/>
<path id="Vector_11" d="M68.482 67.0073C71.2674 67.0073 73.5254 64.6817 73.5254 61.813C73.5254 58.9442 71.2674 56.6186 68.482 56.6186H20.93C18.1446 56.6186 15.8866 58.9442 15.8866 61.813C15.8866 64.6817 18.1446 67.0073 20.93 67.0073H68.482Z" fill="#D5DFEB"/>
<path id="Vector_12" d="M67.7259 68.484H20.1739C18.5497 68.484 16.992 67.8195 15.8435 66.6366C14.695 65.4537 14.0498 63.8494 14.0498 62.1766C14.0498 60.5037 14.695 58.8994 15.8435 57.7165C16.992 56.5337 18.5497 55.8691 20.1739 55.8691H67.7259C69.3501 55.8691 70.9078 56.5337 72.0563 57.7165C73.2048 58.8994 73.85 60.5037 73.85 62.1766C73.85 63.8494 73.2048 65.4537 72.0563 66.6366C70.9078 67.8195 69.3501 68.484 67.7259 68.484ZM20.1739 58.0953C19.1235 58.0972 18.1167 58.5279 17.374 59.2928C16.6313 60.0578 16.2132 61.0947 16.2113 62.1766C16.2132 63.2584 16.6313 64.2953 17.374 65.0603C18.1167 65.8253 19.1235 66.2559 20.1739 66.2579H67.7259C68.7769 66.2579 69.7848 65.8279 70.5279 65.0625C71.2711 64.2971 71.6886 63.259 71.6886 62.1766C71.6886 61.0941 71.2711 60.0561 70.5279 59.2907C69.7848 58.5253 68.7769 58.0953 67.7259 58.0953H20.1739Z" fill="#3E6177"/>
<path id="Vector_13" d="M67.9706 21.7347H57.8838V23.2188H67.9706V21.7347Z" fill="white"/>
<path id="Vector_14" d="M56.443 21.7347H52.1201V23.2188H56.443V21.7347Z" fill="white"/>
<path id="Vector_15" d="M50.6793 21.7347H49.2383V23.2188H50.6793V21.7347Z" fill="white"/>
<path id="Vector_16" d="M22.5804 28.7842H20.4189V57.7243H22.5804V28.7842Z" fill="#3E6177"/>
<path id="Vector_17" d="M67.971 29.1552H65.8096V56.6112H67.971V29.1552Z" fill="#3E6177"/>
<path id="Vector_18" opacity="0.3" d="M47.7332 33.578L34.0449 48.4239L35.6123 49.9568L49.3005 35.111L47.7332 33.578Z" fill="#2F55D4"/>
<path id="Vector_19" opacity="0.3" d="M48.4448 38.7925L39.7998 48.4381L41.388 49.948L50.0331 40.3024L48.4448 38.7925Z" fill="#2F55D4"/>
<path id="Vector_20" d="M20.8003 25.1407H19.3594V34.5574H20.8003V25.1407Z" fill="white"/>
<path id="Vector_21" d="M20.8003 35.9005H19.3594V39.9373H20.8003V35.9005Z" fill="white"/>
<path id="Vector_22" d="M20.8003 41.2804H19.3594V42.6235H20.8003V41.2804Z" fill="white"/>
<path id="Vector_23" d="M18.8551 43.1281C29.2685 43.1281 37.7102 34.4337 37.7102 23.7086C37.7102 12.9835 29.2685 4.28906 18.8551 4.28906C8.44171 4.28906 0 12.9835 0 23.7086C0 34.4337 8.44171 43.1281 18.8551 43.1281Z" fill="white"/>
<path id="Vector_24" d="M19.5107 39.4624C27.9584 39.4624 34.8066 32.4091 34.8066 23.7086C34.8066 15.008 27.9584 7.9548 19.5107 7.9548C11.063 7.9548 4.21484 15.008 4.21484 23.7086C4.21484 32.4091 11.063 39.4624 19.5107 39.4624Z" fill="#2F55D4"/>
<path id="Vector_25" d="M18.8548 40.5754C15.6161 40.5739 12.4505 39.5835 9.75837 37.7292C7.0662 35.875 4.96829 33.2402 3.72989 30.1581C2.49149 27.0759 2.1682 23.6848 2.80091 20.4135C3.43362 17.1421 4.99391 14.1374 7.28451 11.7793C9.5751 9.42115 12.4932 7.81547 15.6697 7.16526C18.8463 6.51505 22.1387 6.84951 25.1307 8.12634C28.1227 9.40316 30.68 11.565 32.4791 14.3386C34.2783 17.1122 35.2386 20.3729 35.2386 23.7086C35.2329 28.1814 33.5047 32.4693 30.4331 35.6313C27.3616 38.7934 23.1976 40.5715 18.8548 40.5754ZM18.8548 9.06045C16.0439 9.06192 13.2965 9.92164 10.96 11.5309C8.6234 13.1402 6.80252 15.4269 5.7275 18.1018C4.65248 20.7768 4.37158 23.7199 4.92031 26.5592C5.46903 29.3985 6.82275 32.0066 8.81034 34.0537C10.7979 36.1008 13.3302 37.495 16.087 38.0602C18.8438 38.6253 21.7014 38.336 24.2986 37.2288C26.8957 36.1216 29.1159 34.2462 30.6785 31.8397C32.241 29.4332 33.0757 26.6036 33.0771 23.7086C33.0714 19.8261 31.5709 16.1045 28.9048 13.3599C26.2386 10.6153 22.6244 9.07179 18.8548 9.06787V9.06045Z" fill="#3E6177"/>
<path id="Vector_26" d="M17.4718 30.7432C17.188 30.7424 16.9113 30.6518 16.6792 30.4835L11.1531 26.4987C10.9181 26.3294 10.758 26.071 10.708 25.7801C10.658 25.4893 10.7222 25.1899 10.8865 24.9478C11.0509 24.7057 11.3018 24.5408 11.5842 24.4893C11.8666 24.4378 12.1573 24.504 12.3924 24.6732L17.2917 28.198L25.3179 17.2008C25.403 17.0838 25.5097 16.9853 25.6318 16.9108C25.7539 16.8364 25.8891 16.7874 26.0296 16.7667C26.1701 16.7461 26.3132 16.7541 26.4506 16.7904C26.5881 16.8266 26.7173 16.8905 26.8309 16.9782C26.9444 17.0659 27.0401 17.1757 27.1124 17.3015C27.1847 17.4273 27.2322 17.5665 27.2523 17.7112C27.2724 17.8559 27.2646 18.0033 27.2293 18.1449C27.1941 18.2865 27.1322 18.4195 27.047 18.5365L18.5813 30.1644C18.4531 30.3434 18.2859 30.489 18.0933 30.5895C17.9006 30.69 17.6877 30.7427 17.4718 30.7432Z" fill="white"/>
</g>
</g>
</g>
<defs>
<clipPath id="clip0_93_1298">
<rect width="88" height="88" fill="white"/>
</clipPath>
</defs>
</svg>
