<svg width="24" height="24" viewBox="0 0 24 24" fill="none" xmlns="http://www.w3.org/2000/svg">
<path fill-rule="evenodd" clip-rule="evenodd" d="M6.12246 4.86575C4.65333 6.28645 3.6998 8.45492 3.6998 11.45C3.6998 13.961 5.30564 16.6832 7.2671 18.8347C8.23513 19.8965 9.25837 20.784 10.1483 21.4003C10.5937 21.7088 10.9947 21.9416 11.3298 22.0947C11.6803 22.2549 11.8994 22.3 11.9998 22.3C12.1002 22.3 12.3193 22.2549 12.6698 22.0947C13.0049 21.9416 13.4059 21.7088 13.8513 21.4003C14.7412 20.784 15.7645 19.8965 16.7325 18.8347C18.694 16.6832 20.2998 13.961 20.2998 11.45C20.2998 8.45492 19.3463 6.28645 17.8772 4.86575C16.4024 3.43961 14.3389 2.70005 11.9998 2.70005C9.66073 2.70005 7.5972 3.43961 6.12246 4.86575ZM5.14923 3.85935C6.93184 2.13549 9.36831 1.30005 11.9998 1.30005C14.6313 1.30005 17.0678 2.13549 18.8504 3.85935C20.6386 5.58864 21.6998 8.14518 21.6998 11.45C21.6998 14.4891 19.8056 17.5419 17.7671 19.7779C16.7351 20.9098 15.6334 21.8692 14.6483 22.5513C14.1562 22.8921 13.6822 23.1714 13.2516 23.3681C12.8366 23.5577 12.3994 23.7001 11.9998 23.7001C11.6002 23.7001 11.1631 23.5577 10.748 23.3681C10.3174 23.1714 9.84339 22.8921 9.35128 22.5513C8.36624 21.8692 7.26448 20.9098 6.23251 19.7779C4.19397 17.5419 2.2998 14.4891 2.2998 11.45C2.2998 8.14518 3.361 5.58864 5.14923 3.85935Z" fill="#F57005"/>
<path fill-rule="evenodd" clip-rule="evenodd" d="M11.9998 7.70005C10.5915 7.70005 9.4498 8.84172 9.4498 10.25C9.4498 11.6584 10.5915 12.8 11.9998 12.8C13.4081 12.8 14.5498 11.6584 14.5498 10.25C14.5498 8.84172 13.4081 7.70005 11.9998 7.70005ZM8.0498 10.25C8.0498 8.06852 9.81828 6.30005 11.9998 6.30005C14.1813 6.30005 15.9498 8.06852 15.9498 10.25C15.9498 12.4316 14.1813 14.2 11.9998 14.2C9.81828 14.2 8.0498 12.4316 8.0498 10.25Z" fill="#F57005"/>
</svg>
