<svg width="24" height="24" viewBox="0 0 24 24" fill="none" xmlns="http://www.w3.org/2000/svg">
<path fill-rule="evenodd" clip-rule="evenodd" d="M5 5.29961C5 4.91301 5.3134 4.59961 5.7 4.59961H18.3C18.6866 4.59961 19 4.91301 19 5.29961C19 5.68621 18.6866 5.99961 18.3 5.99961H5.7C5.3134 5.99961 5 5.68621 5 5.29961Z" fill="#fff"/>
<path fill-rule="evenodd" clip-rule="evenodd" d="M5 11.2996C5 10.913 5.3134 10.5996 5.7 10.5996H18.3C18.6866 10.5996 19 10.913 19 11.2996C19 11.6862 18.6866 11.9996 18.3 11.9996H5.7C5.3134 11.9996 5 11.6862 5 11.2996Z" fill="#fff"/>
<path fill-rule="evenodd" clip-rule="evenodd" d="M5 17.2996C5 16.913 5.3134 16.5996 5.7 16.5996H18.3C18.6866 16.5996 19 16.913 19 17.2996C19 17.6862 18.6866 17.9996 18.3 17.9996H5.7C5.3134 17.9996 5 17.6862 5 17.2996Z" fill="#fff"/>
</svg>
