<svg width="24" height="24" viewBox="0 0 24 24" fill="none" xmlns="http://www.w3.org/2000/svg">
<path fill-rule="evenodd" clip-rule="evenodd" d="M9.96834 3.30005H14.0313C15.4048 3.30004 16.4785 3.30004 17.3408 3.37049C18.2178 3.44215 18.9376 3.59017 19.5876 3.92131C20.6601 4.46779 21.5321 5.33978 22.0785 6.4123C22.4097 7.06221 22.5577 7.78201 22.6294 8.65906C22.6998 9.52137 22.6998 10.5951 22.6998 11.9686V12.0315C22.6998 13.405 22.6998 14.4787 22.6294 15.341C22.5577 16.2181 22.4097 16.9379 22.0785 17.5878C21.5321 18.6603 20.6601 19.5323 19.5876 20.0788C18.9376 20.4099 18.2178 20.5579 17.3408 20.6296C16.4785 20.7001 15.4047 20.7001 14.0312 20.7001H9.96839C8.59486 20.7001 7.52113 20.7001 6.65881 20.6296C5.78176 20.5579 5.06197 20.4099 4.41206 20.0788C3.33954 19.5323 2.46755 18.6603 1.92107 17.5878C1.58992 16.9379 1.44191 16.2181 1.37025 15.341C1.2998 14.4787 1.2998 13.405 1.2998 12.0315V11.9686C1.2998 10.5951 1.2998 9.52136 1.37025 8.65906C1.44191 7.78201 1.58992 7.06221 1.92107 6.4123C2.46755 5.33978 3.33954 4.46779 4.41206 3.92131C5.06197 3.59017 5.78176 3.44215 6.65881 3.37049C7.52112 3.30004 8.59484 3.30004 9.96834 3.30005ZM6.77282 4.76585C5.98235 4.83043 5.4673 4.9549 5.04765 5.16872C4.23855 5.58098 3.58073 6.23879 3.16848 7.04789C2.95465 7.46754 2.83019 7.98259 2.7656 8.77306C2.70035 9.5717 2.6998 10.5884 2.6998 12C2.6998 13.4117 2.70035 14.4284 2.7656 15.227C2.83019 16.0175 2.95465 16.5326 3.16848 16.9522C3.58073 17.7613 4.23855 18.4191 5.04765 18.8314C5.4673 19.0452 5.98235 19.1697 6.77282 19.2343C7.57146 19.2995 8.58812 19.3 9.9998 19.3H13.9998C15.4115 19.3 16.4281 19.2995 17.2268 19.2343C18.0173 19.1697 18.5323 19.0452 18.952 18.8314C19.7611 18.4191 20.4189 17.7613 20.8311 16.9522C21.045 16.5326 21.1694 16.0175 21.234 15.227C21.2993 14.4284 21.2998 13.4117 21.2998 12C21.2998 10.5884 21.2993 9.5717 21.234 8.77306C21.1694 7.98259 21.045 7.46754 20.8311 7.04789C20.4189 6.23879 19.7611 5.58098 18.952 5.16872C18.5323 4.9549 18.0173 4.83043 17.2268 4.76585C16.4281 4.70059 15.4115 4.70005 13.9998 4.70005H9.9998C8.58812 4.70005 7.57146 4.70059 6.77282 4.76585Z" fill="#F57005"/>
<path fill-rule="evenodd" clip-rule="evenodd" d="M7.46834 9.54451C7.71993 9.25098 8.16184 9.21699 8.45537 9.46858L7.99982 10.0001L7.54426 10.5315C7.25074 10.2799 7.21674 9.83804 7.46834 9.54451ZM11.9998 12.2449C11.8881 12.1789 11.7424 12.0828 11.5676 11.9594C11.1864 11.6904 10.7149 11.3257 10.2496 10.9535C9.78629 10.5828 9.33744 10.2114 9.00386 9.93208C8.83724 9.79258 8.69975 9.6764 8.60407 9.59521L8.49355 9.50121L8.45537 9.46858L7.99982 10.0001C7.54426 10.5315 7.54422 10.5315 7.54426 10.5315L7.58494 10.5663L7.6983 10.6627C7.79598 10.7456 7.93584 10.8638 8.10515 11.0055C8.44344 11.2888 8.90085 11.6673 9.37503 12.0467C9.84725 12.4244 10.3445 12.8098 10.7602 13.1032C10.9667 13.2489 11.1653 13.3807 11.3371 13.4789C11.4224 13.5277 11.514 13.5756 11.6049 13.6132C11.677 13.643 11.8254 13.7001 11.9998 13.7001C12.1742 13.7001 12.3226 13.643 12.3948 13.6132C12.4857 13.5756 12.5772 13.5277 12.6625 13.4789C12.8344 13.3807 13.0329 13.2489 13.2394 13.1032C13.6551 12.8098 14.1524 12.4244 14.6246 12.0467C15.0988 11.6673 15.5562 11.2888 15.8945 11.0055C16.0638 10.8638 16.2037 10.7456 16.3013 10.6627L16.4147 10.5663L16.4546 10.5322C16.4546 10.5322 16.4554 10.5315 15.9998 10.0001L16.4554 10.5315C16.7489 10.2799 16.7829 9.83804 16.5313 9.54451C16.2797 9.25098 15.8378 9.21699 15.5443 9.46858L15.5061 9.50121L15.3956 9.59521C15.2999 9.6764 15.1624 9.79258 14.9958 9.93208C14.6622 10.2114 14.2133 10.5828 13.75 10.9535C13.2847 11.3257 12.8133 11.6904 12.4321 11.9594C12.2573 12.0828 12.1115 12.1789 11.9998 12.2449ZM12.1401 12.3196C12.1401 12.3196 12.1402 12.3196 12.1401 12.3196V12.3196Z" fill="#F57005"/>
</svg>
