<svg width="22" height="18" viewBox="0 0 22 18" fill="none" xmlns="http://www.w3.org/2000/svg">
<path fill-rule="evenodd" clip-rule="evenodd" d="M8.96834 0.300049H13.0313C14.4048 0.300045 15.4785 0.300042 16.3408 0.370495C17.2178 0.442152 17.9376 0.590168 18.5876 0.921312C19.6601 1.46779 20.5321 2.33978 21.0785 3.4123C21.4097 4.06221 21.5577 4.78201 21.6294 5.65906C21.6998 6.52137 21.6998 7.59511 21.6998 8.96863V9.03147C21.6998 10.405 21.6998 11.4787 21.6294 12.341C21.5577 13.2181 21.4097 13.9379 21.0785 14.5878C20.5321 15.6603 19.6601 16.5323 18.5876 17.0788C17.9376 17.4099 17.2178 17.5579 16.3408 17.6296C15.4785 17.7001 14.4047 17.7001 13.0312 17.7001H8.96839C7.59486 17.7001 6.52113 17.7001 5.65881 17.6296C4.78176 17.5579 4.06197 17.4099 3.41206 17.0788C2.33954 16.5323 1.46755 15.6603 0.921068 14.5878C0.589924 13.9379 0.441908 13.2181 0.370251 12.341C0.299798 11.4787 0.299801 10.405 0.299805 9.03151V8.96859C0.299801 7.59509 0.299798 6.52136 0.370251 5.65906C0.441908 4.78201 0.589924 4.06221 0.921068 3.4123C1.46755 2.33978 2.33954 1.46779 3.41206 0.921312C4.06197 0.590168 4.78176 0.442152 5.65881 0.370495C6.52112 0.300042 7.59484 0.300045 8.96834 0.300049ZM5.77282 1.76585C4.98235 1.83043 4.4673 1.9549 4.04765 2.16872C3.23855 2.58098 2.58073 3.23879 2.16848 4.04789C1.95465 4.46754 1.83019 4.98259 1.7656 5.77306C1.70035 6.5717 1.6998 7.58837 1.6998 9.00005C1.6998 10.4117 1.70035 11.4284 1.7656 12.227C1.83019 13.0175 1.95465 13.5326 2.16848 13.9522C2.58073 14.7613 3.23855 15.4191 4.04765 15.8314C4.4673 16.0452 4.98235 16.1697 5.77282 16.2343C6.57146 16.2995 7.58812 16.3 8.9998 16.3H12.9998C14.4115 16.3 15.4281 16.2995 16.2268 16.2343C17.0173 16.1697 17.5323 16.0452 17.952 15.8314C18.7611 15.4191 19.4189 14.7613 19.8311 13.9522C20.045 13.5326 20.1694 13.0175 20.234 12.227C20.2993 11.4284 20.2998 10.4117 20.2998 9.00005C20.2998 7.58837 20.2993 6.5717 20.234 5.77306C20.1694 4.98259 20.045 4.46754 19.8311 4.04789C19.4189 3.23879 18.7611 2.58098 17.952 2.16872C17.5323 1.9549 17.0173 1.83043 16.2268 1.76585C15.4281 1.70059 14.4115 1.70005 12.9998 1.70005H8.9998C7.58812 1.70005 6.57146 1.70059 5.77282 1.76585Z" fill="#F57005"/>
<path fill-rule="evenodd" clip-rule="evenodd" d="M6.46834 6.54451C6.71993 6.25098 7.16184 6.21699 7.45537 6.46858L6.99982 7.00006L6.54426 7.53154C6.25074 7.27995 6.21674 6.83804 6.46834 6.54451ZM10.9998 9.24487C10.8881 9.17893 10.7424 9.08283 10.5676 8.95943C10.1864 8.69036 9.71489 8.32568 9.2496 7.95345C8.78629 7.5828 8.33744 7.21136 8.00386 6.93208C7.83724 6.79258 7.69975 6.6764 7.60407 6.59521L7.49355 6.50121L7.45537 6.46858L6.99982 7.00006C6.54426 7.53154 6.54422 7.5315 6.54426 7.53154L6.58494 7.5663L6.6983 7.66272C6.79598 7.7456 6.93584 7.86379 7.10515 8.00554C7.44344 8.28877 7.90085 8.66732 8.37503 9.04667C8.84725 9.42444 9.34451 9.80976 9.7602 10.1032C9.96669 10.2489 10.1653 10.3807 10.3371 10.4789C10.4224 10.5277 10.514 10.5756 10.6049 10.6132C10.677 10.643 10.8254 10.7001 10.9998 10.7001C11.1742 10.7001 11.3226 10.643 11.3948 10.6132C11.4857 10.5756 11.5772 10.5277 11.6625 10.4789C11.8344 10.3807 12.0329 10.2489 12.2394 10.1032C12.6551 9.80976 13.1524 9.42444 13.6246 9.04667C14.0988 8.66732 14.5562 8.28877 14.8945 8.00554C15.0638 7.86379 15.2037 7.7456 15.3013 7.66272L15.4147 7.5663L15.4546 7.53221C15.4546 7.53218 15.4554 7.53154 14.9998 7.00006L15.4554 7.53154C15.7489 7.27995 15.7829 6.83804 15.5313 6.54451C15.2797 6.25098 14.8378 6.21699 14.5443 6.46858L14.5061 6.50121L14.3956 6.59521C14.2999 6.6764 14.1624 6.79258 13.9958 6.93208C13.6622 7.21136 13.2133 7.5828 12.75 7.95345C12.2847 8.32568 11.8133 8.69036 11.4321 8.95943C11.2573 9.08283 11.1115 9.17893 10.9998 9.24487ZM11.1401 9.31956C11.1401 9.31956 11.1402 9.31956 11.1401 9.31956V9.31956Z" fill="#F57005"/>
</svg>
