<svg width="18" height="21" viewBox="0 0 18 21" fill="none" xmlns="http://www.w3.org/2000/svg">
<g id="Profile">
<path id="Rectangle 23 (Stroke)" fill-rule="evenodd" clip-rule="evenodd" d="M13.2567 13.4564C13.1734 13.4562 13.0281 13.4667 12.6447 13.4961C11.4426 13.5883 10.0496 13.6668 8.7859 13.6668C7.57517 13.6668 6.22941 13.5947 5.04372 13.5077C4.64614 13.4785 4.49516 13.4681 4.41007 13.4687C3.26983 13.4775 2.38466 14.2142 2.16914 15.334C2.153 15.4178 2.1381 15.548 2.09965 15.8986C2.06264 16.2361 2.04991 16.3586 2.04797 16.4526C2.02297 17.662 2.93909 18.6841 4.14403 18.7911C4.23764 18.7994 4.36086 18.8001 4.70037 18.8001L12.998 18.8001C13.3712 18.8001 13.5072 18.7993 13.6075 18.7897C14.8669 18.6696 15.7929 17.555 15.68 16.2949C15.671 16.1945 15.6469 16.0607 15.5785 15.6938C15.5164 15.3609 15.4928 15.2378 15.471 15.157C15.1894 14.1137 14.3374 13.4593 13.2567 13.4564ZM12.5856 12.0965C12.906 12.0719 13.1133 12.056 13.2605 12.0564C14.9725 12.0611 16.3765 13.1394 16.8226 14.7922C16.861 14.9343 16.8952 15.1179 16.9473 15.3971L16.9627 15.4798C17.0204 15.7888 17.0587 15.9941 17.0744 16.17C17.256 18.1971 15.7664 19.9902 13.7404 20.1834C13.5646 20.2002 13.3557 20.2001 13.0414 20.2001L4.70037 20.2001C4.68714 20.2001 4.6741 20.2001 4.66125 20.2001C4.37492 20.2001 4.18407 20.2002 4.0202 20.1856C2.08182 20.0135 0.608059 18.3693 0.648264 16.4237C0.651663 16.2592 0.672487 16.0695 0.703731 15.7848C0.705132 15.7721 0.706554 15.7591 0.707997 15.746C0.709571 15.7316 0.711118 15.7175 0.71264 15.7036C0.74484 15.4097 0.765961 15.217 0.794376 15.0694C1.13598 13.2945 2.59199 12.0826 4.39934 12.0688C4.54973 12.0676 4.7641 12.0834 5.09629 12.1078C5.11263 12.109 5.12926 12.1102 5.14618 12.1114C6.31609 12.1973 7.6238 12.2668 8.7859 12.2668C9.9988 12.2668 11.3521 12.1911 12.5376 12.1002L12.5856 12.0965Z" fill="white"/>
<path id="Rectangle 24 (Stroke)" fill-rule="evenodd" clip-rule="evenodd" d="M4.30078 5.50005C4.30078 2.90431 6.40504 0.800049 9.00078 0.800049C11.5965 0.800049 13.7008 2.90431 13.7008 5.50005V6.07148C13.7008 8.35162 11.8524 10.2 9.57221 10.2H8.42935C6.1492 10.2 4.30078 8.35162 4.30078 6.07148V5.50005ZM9.00078 2.20005C7.17824 2.20005 5.70078 3.67751 5.70078 5.50005V6.07148C5.70078 7.57843 6.9224 8.80005 8.42935 8.80005H9.57221C11.0792 8.80005 12.3008 7.57843 12.3008 6.07148V5.50005C12.3008 3.67751 10.8233 2.20005 9.00078 2.20005Z" fill="white"/>
</g>
</svg>
