<svg width="17" height="19" viewBox="0 0 17 19" fill="none" xmlns="http://www.w3.org/2000/svg">
<g id="Profile">
<g id="Vector">
<path d="M1.40305 14.3222C1.43971 13.9879 1.45803 13.8208 1.48099 13.7015C1.75954 12.2543 2.93014 11.2799 4.40393 11.2686C4.52537 11.2677 4.71497 11.2816 5.09418 11.3095C6.27198 11.3959 7.59871 11.4667 8.78512 11.4667C10.0234 11.4667 11.3966 11.3896 12.5904 11.298C12.9561 11.27 13.1389 11.256 13.2579 11.2563C14.6542 11.2601 15.7822 12.1264 16.146 13.4745C16.177 13.5893 16.2066 13.748 16.2658 14.0653C16.3311 14.4153 16.3637 14.5902 16.3765 14.7324C16.5237 16.3759 15.3159 17.8298 13.6732 17.9865C13.5311 18 13.3532 18 12.9972 18L4.6996 18C4.37571 18 4.21376 18 4.08134 17.9882C2.50968 17.8487 1.31474 16.5155 1.34734 14.938C1.35009 14.8051 1.36774 14.6441 1.40305 14.3222Z" fill="#6A7A9B"/>
<path fill-rule="evenodd" clip-rule="evenodd" d="M13.2565 11.7563C13.163 11.756 13.007 11.7676 12.6286 11.7966C11.4289 11.8885 10.0415 11.9667 8.78512 11.9667C7.58133 11.9667 6.24101 11.895 5.05758 11.8081C4.66524 11.7793 4.50323 11.7679 4.40776 11.7686C3.17222 11.7781 2.20549 12.5827 1.97197 13.7961C1.95388 13.89 1.938 14.0307 1.90006 14.3767C1.86354 14.7097 1.8494 14.8433 1.84723 14.9483C1.82006 16.2629 2.81584 17.3739 4.12556 17.4902C4.23026 17.4995 4.36454 17.5 4.69959 17.5L12.9972 17.5C13.3655 17.5 13.5135 17.4994 13.6257 17.4887C14.9946 17.3582 16.0011 16.1466 15.8784 14.777C15.8684 14.6647 15.8418 14.5191 15.7743 14.157C15.713 13.8286 15.6878 13.6953 15.6633 13.6048C15.3582 12.4744 14.4273 11.7595 13.2565 11.7563ZM12.5901 10.7966C12.9204 10.7712 13.1201 10.7559 13.2592 10.7563C14.881 10.7607 16.2061 11.7785 16.6288 13.3442C16.665 13.4784 16.6978 13.6546 16.7514 13.942L16.7636 14.0073C16.8229 14.3252 16.8596 14.5216 16.8745 14.6878C17.0462 16.6052 15.6371 18.3014 13.7207 18.4842C13.5546 18.5 13.3548 18.5 13.0315 18.5L4.66868 18.5C4.37423 18.5 4.1919 18.5 4.03711 18.4863C2.2035 18.3235 0.809407 16.7681 0.84744 14.9277C0.85065 14.7723 0.870536 14.5911 0.902651 14.2984C0.90376 14.2883 0.904884 14.278 0.906023 14.2677C0.907267 14.2563 0.908493 14.2451 0.909702 14.2341C0.942867 13.9315 0.963154 13.7465 0.98999 13.607C1.31358 11.9258 2.68804 10.7818 4.40009 10.7687C4.5421 10.7676 4.74889 10.7828 5.0912 10.8079L5.13076 10.8108C6.30293 10.8968 7.61607 10.9667 8.78512 10.9667C10.0053 10.9667 11.3642 10.8906 12.5521 10.7995L12.5901 10.7966Z" fill="#6A7A9B"/>
<path d="M4.9997 4C4.9997 1.79086 6.79056 0 8.9997 0C11.2088 0 12.9997 1.79086 12.9997 4V4.57143C12.9997 6.46498 11.4647 8 9.57113 8H8.42828C6.53473 8 4.9997 6.46498 4.9997 4.57143V4Z" fill="#6A7A9B"/>
</g>
</g>
</svg>
