<svg width="18" height="20" viewBox="0 0 18 20" fill="none" xmlns="http://www.w3.org/2000/svg">
<g id="Document">
<path id="Subtract" fill-rule="evenodd" clip-rule="evenodd" d="M0.672766 2.86413C0 4.09621 0 5.73081 0 9V11C0 14.2692 0 15.9038 0.672766 17.1359C1.17807 18.0613 1.93873 18.8219 2.86413 19.3272C4.09621 20 5.73081 20 9 20C12.2692 20 13.9038 20 15.1359 19.3272C16.0613 18.8219 16.8219 18.0613 17.3272 17.1359C18 15.9038 18 14.2692 18 11V9C18 5.73081 18 4.09621 17.3272 2.86413C16.8219 1.93873 16.0613 1.17807 15.1359 0.672766C13.9038 0 12.2692 0 9 0C5.73081 0 4.09621 0 2.86413 0.672766C1.93873 1.17807 1.17807 1.93873 0.672766 2.86413ZM12.3 15.4C12.6866 15.4 13 15.0866 13 14.7C13 14.3134 12.6866 14 12.3 14L4.7 14C4.3134 14 4 14.3134 4 14.7C4 15.0866 4.3134 15.4 4.7 15.4L12.3 15.4ZM13 10.7C13 11.0866 12.6866 11.4 12.3 11.4L4.7 11.4C4.3134 11.4 4 11.0866 4 10.7C4 10.3134 4.3134 10 4.7 10L12.3 10C12.6866 10 13 10.3134 13 10.7ZM8.3 7.40002C8.6866 7.40002 9 7.08662 9 6.70002C9 6.31343 8.6866 6.00002 8.3 6.00002L4.7 6.00002C4.3134 6.00002 4 6.31343 4 6.70003C4 7.08662 4.3134 7.40002 4.7 7.40002L8.3 7.40002Z" fill="#6A7A9B"/>
</g>
</svg>
