<svg width="40" height="40" viewBox="0 0 34 34" fill="none" xmlns="http://www.w3.org/2000/svg">
  <path fill-rule="evenodd" clip-rule="evenodd" d="M21.7374 12.2623C22.0108 12.5357 22.0108 12.9789 21.7374 13.2523L13.2522 21.7376C12.9788 22.0109 12.5356 22.0109 12.2622 21.7376C11.9888 21.4642 11.9888 21.021 12.2622 20.7476L20.7475 12.2623C21.0209 11.989 21.4641 11.989 21.7374 12.2623Z" fill="#fff" stroke="#fff" stroke-width="2"/>
  <path fill-rule="evenodd" clip-rule="evenodd" d="M12.2619 12.2624C12.5352 11.9891 12.9784 11.9891 13.2518 12.2624L21.7371 20.7477C22.0105 21.0211 22.0105 21.4643 21.7371 21.7377C21.4637 22.011 21.0205 22.011 20.7471 21.7377L12.2619 13.2524C11.9885 12.979 11.9885 12.5358 12.2619 12.2624Z" fill="#fff" stroke="#fff" stroke-width="2"/>
</svg>
